<?xml version="1.0" encoding="UTF-8"?>
<svg width="700pt" height="700pt" version="1.1" viewBox="0 0 700 700" xmlns="http://www.w3.org/2000/svg" xmlns:xlink="http://www.w3.org/1999/xlink">
 <g>
  <path d="m580.72 304.08c2.8008 20.719 7.8398 40.879 10.078 61.602 0.55859 5.6016 1.1211 10.641 0.55859 16.238-1.1211 14.559 3.3594 28.559 2.8008 43.121-0.55859 15.121-1.1211 29.68-1.1211 44.801 0 3.9219-1.1211 7.2812-2.8008 11.199-3.3594 7.8398-7.8398 10.641-16.238 10.078-7.2812-0.55859-14.559-1.1211-21.84-1.1211-16.801 0-33.602-1.6797-50.398 0.55859-7.2812 1.1211-15.121 0-22.961 1.1211-4.4805 0.55859-7.8398-1.6797-11.199-5.6016-6.1602-7.8398-12.879-15.68-21.84-20.719-2.2383-1.1211-2.8008-2.8008-2.2383-4.4805 2.8008-13.441-1.6797-26.32-2.2383-39.762 0-13.441-1.1211-27.441-2.2383-40.879 0-3.9219-1.1211-7.8398-1.6797-11.199-2.2383-12.32-4.4805-24.641-6.7188-37.52-4.4805-23.52-12.32-45.359-25.199-65.52-9.5195-15.121-19.039-30.238-33.602-41.441-1.1211-0.55859-2.2383-2.2383-2.2383-2.8008 2.2383-6.7188-3.3594-7.8398-7.2812-10.078-11.199-6.1602-22.398-11.762-33.602-17.922-8.9609-4.4805-19.039-6.1602-28-9.5195-17.359-6.7188-35.281-9.5195-53.199-11.762-13.441-1.6797-26.32-3.3594-39.762-5.0391-11.199-1.6797-22.961-1.1211-34.16-1.6797-12.879-0.55859-25.199-1.1211-34.719-11.199-10.641-2.8008-11.199-10.641-12.32-20.16-1.6797-12.32-1.6797-24.641-1.6797-36.961-0.55859-16.238-1.1211-32.48-2.2383-48.16-0.55859-12.879 5.6016-21.281 17.922-24.078 5.0391-1.1211 9.5195-2.8008 14.559-1.1211 1.6797 0.55859 3.9219 0 5.6016-1.1211 6.7188-3.9219 14-3.9219 21.281-4.4805 16.801-1.1211 33.602 0 50.398 3.3594 10.641 2.2383 21.84 0 32.48 2.2383 10.078 2.2383 20.719 3.9219 30.801 5.6016 7.8398 1.1211 15.68 2.2383 23.52 3.9219 17.922 3.9219 35.281 8.9609 51.52 16.238 8.3984 3.9219 17.922 6.7188 26.879 9.5195 12.879 3.9219 23.52 12.32 35.281 19.602 19.039 11.762 36.398 26.879 53.762 41.441 3.3594 2.8008 6.1602 5.6016 8.3984 8.9609 1.1211 1.6797 2.8008 3.9219 3.9219 5.0391 10.641 9.5195 19.039 21.281 27.441 33.039 5.6016 7.8398 9.5195 16.238 13.441 24.641 2.2383 5.0391 5.6016 10.078 8.3984 15.121 5.0391 9.5195 8.9609 20.16 12.32 30.238 4.4805 12.879 9.5195 25.199 12.879 38.641 2.2305 8.9648 5.5898 18.484 7.2695 28.004zm0.5625 175.28c1.1211-8.9609 0-17.922 0.55859-26.32 1.1211-24.078-1.1211-48.16-2.2383-72.238-0.55859-8.3984-1.1211-16.238-2.8008-24.641-2.8008-19.039-8.4023-36.961-8.9609-56 0-3.9219-1.6797-7.2812-2.2383-11.199-1.6797-8.9609-6.1602-16.801-8.3984-25.199-5.0391-16.238-9.5195-33.039-17.359-48.719-3.3594-6.7188-7.8398-13.441-10.641-20.16-7.2812-16.801-18.48-30.801-31.922-43.68-3.3594-3.3594-6.1602-7.8398-12.32-7.2812-1.1211 0-2.8008-1.6797-3.9219-2.2383-6.1602-4.4805-12.879-8.3984-19.039-12.879-25.762-19.039-53.762-33.602-84-44.801-12.879-4.4805-25.199-10.078-38.641-14-15.121-4.4805-30.801-6.1602-45.922-10.078-17.922-5.0391-35.84-6.1602-53.762-3.3594-6.7188 1.1211-13.441 1.6797-20.16 0.55859-18.48-2.2383-37.52-0.55859-56 2.2383-4.4805 0.55859-5.6016 2.8008-5.0391 7.2812 1.6797 11.199 2.2383 22.398 1.6797 33.039-1.1211 15.68 0 31.359 0 46.48 0 6.1602 1.6797 7.8398 8.3984 7.8398 10.078 0.55859 20.16 0.55859 30.801 0.55859 14.559 0 29.121 1.1211 43.68 3.9219 7.8398 1.6797 16.238 2.8008 24.078 3.9219 26.879 3.9219 52.078 10.641 76.719 22.398 8.9609 4.4805 16.801 10.078 25.762 14.559 16.801 8.9609 32.48 18.48 46.48 31.359 10.078 8.9609 16.238 21.281 26.32 30.238 2.2383 2.2383 3.3594 6.1602 4.4805 9.5195 5.6016 19.039 13.441 37.52 19.039 57.121 3.3594 10.641 6.1602 20.719 7.8398 31.359 2.2383 14 4.4805 27.441 6.1602 41.441 1.6797 13.441 5.0391 26.32 5.0391 39.762 0 11.199-0.55859 22.398 1.6797 33.039 1.1211 5.6016 2.8008 6.1602 7.2812 5.0391 11.199-2.2383 22.398-2.2383 33.039-3.3594 16.809-0.003906 35.285 2.2383 54.328 4.4766zm-436.8-442.4c3.3594 3.9219 6.7188 8.3984 10.078 12.32 1.1211 1.6797 2.8008 2.2383 3.9219 1.6797 7.2812-3.9219 15.121-2.2383 22.398-3.3594 9.5195-1.6797 19.602-2.8008 29.68-2.2383 10.641 0.55859 21.281 0.55859 31.922-0.5625 8.9609-1.1211 17.359-3.3594 26.32-1.6797 22.398 3.3594 44.238 7.8398 66.078 13.441 19.039 5.0391 37.52 11.199 56 18.48 3.3594 1.1211 6.7188 2.2383 9.5195 4.4805 5.6016 5.0391 12.879 8.3984 19.602 11.762 6.1602 2.8008 12.32 7.2812 19.602 8.3984 0-2.2383-1.1211-2.8008-2.2383-3.9219-19.602-12.879-39.762-24.641-62.16-32.48-22.398-7.2812-44.801-16.238-68.32-20.16-32.48-5.0391-65.52-8.9609-98-13.441-15.68-1.6797-31.922-2.8008-47.039 3.9219-2.8008 1.1211-6.1602 1.1211-9.5195 0-3.3633-0.5625-5.6055 1.1172-7.8438 3.3594zm326.48 437.36c0.55859-0.55859 1.1211-0.55859 1.6797-1.1211-2.2383-16.801-1.1211-33.602-3.3594-49.84-2.2383-13.441-3.3594-27.441-5.6016-40.879-2.2383-11.762-2.2383-23.52-6.1602-34.719-8.3984-24.641-16.238-49.281-24.078-73.922-0.55859-2.2383-2.2383-3.9219-3.9219-5.6016l-11.199-11.199c-1.1211 3.9219 1.1211 6.1602 2.8008 8.9609 8.9609 16.801 15.68 34.16 19.039 52.641 2.8008 15.121 5.6016 30.238 7.8398 45.922 2.2383 14 3.9219 28.559 4.4805 42.559 1.1211 16.801 3.3594 34.16 2.8008 50.961 0 1.1211 0.55859 2.2383 1.6797 3.3594 4.4805 4.4805 8.9609 8.3984 14 12.879zm-333.76-427.28c-2.2383 6.7188-1.1211 12.879-1.1211 19.602 0.55859 10.641 2.2383 21.281 1.6797 32.48-1.1211 12.879 0.55859 25.199 2.8008 38.078 0.55859 3.9219 1.1211 7.2812 6.1602 7.8398 0.55859-1.1211 0.55859-2.2383 0.55859-3.3594v-80.078c0.003906-6.1602-2.2383-11.762-10.078-14.562z"/>
  <path d="m292.88 426.16c-0.55859-5.6016-1.1211-11.199-3.3594-16.801-3.3594-7.8398-6.1602-16.238-8.3984-24.078-6.1602-20.719-22.961-32.48-38.641-44.801-6.7188-5.0391-15.121-6.7188-22.961-9.5195-8.3984-2.8008-16.801-5.0391-25.762-7.8398-7.8398-2.2383-16.238-3.3594-24.078-4.4805-2.2383-0.55859-3.3594 0.55859-5.0391 2.2383-3.9219 4.4805-7.8398 3.3594-12.32 0-4.4805-3.3594-9.5195-5.6016-13.441-9.5195-3.3594-3.3594-8.9609-1.6797-11.199-6.1602-3.3594-6.1602-3.9219-12.879-5.0391-19.039-2.2422-18.48-2.8008-38.082-3.9219-57.68-0.55859-8.3984 0-16.801-1.1211-24.641-1.1211-12.32 5.6016-17.922 16.238-19.039 6.7188-0.55859 14-2.2383 20.719-1.1211 7.2812 1.1211 13.441-2.2383 20.719-1.6797 15.68 0 31.359 2.8008 47.039 4.4805 30.238 3.3594 57.121 16.238 83.441 31.359 12.32 7.2812 23.52 16.238 36.398 22.961 11.762 6.1602 19.039 17.922 28.559 28 11.199 11.762 19.602 25.199 26.32 40.32 2.2383 6.1602 7.2812 11.199 10.078 17.359 7.2812 12.879 10.641 26.879 15.121 40.879 3.9219 12.879 5.0391 26.879 6.1602 40.32 0.55859 5.0391 2.2383 10.078 3.3594 15.121 2.2383 12.32 2.2383 24.641 2.8008 36.961 0 3.9219 0 7.2812 1.6797 11.199 2.2383 5.6016-3.3594 15.121-9.5195 17.359-5.6016 2.2383-11.199 1.1211-16.801 1.1211-13.441-0.55859-26.879 0.55859-39.762 0.55859-7.8398 0-15.68 0-23.52 1.1211s-16.238 0.55859-22.961-6.1602c-5.0391-5.0391-11.762-8.3984-16.801-14-0.55859-0.55859-1.6797-1.6797-2.2383-1.6797-8.3984-1.1211-8.3984-7.2812-8.9609-13.441-1.1094-10.078 0.011719-20.16-2.7891-29.68zm132.16 49.84c-2.2383-8.3984-2.2383-16.801-1.6797-24.078 0.55859-7.2812 0-14-1.6797-20.719-1.6797-7.8398-3.3594-15.68-4.4805-23.52-2.8008-16.801-4.4805-34.16-9.5195-50.398-5.6016-17.922-14.559-34.16-25.199-48.719-11.199-14.559-25.199-26.879-39.762-38.078-12.879-10.078-27.441-17.359-41.441-25.199-16.801-9.5195-34.719-16.801-53.762-22.398-15.121-5.0391-31.359-6.1602-46.48-9.5195-8.9609-1.6797-17.922-3.3594-27.441-2.2383-13.441 2.2383-14.559 3.9219-15.121 17.359-0.55859 12.879 2.2383 25.199 1.6797 38.078-0.55859 12.32 0 24.641 2.8008 36.961 0.55859 2.8008 1.1211 5.6016 5.0391 5.6016 20.16 0 39.199 6.7188 58.238 12.879 6.1602 1.6797 11.762 3.9219 17.922 6.7188 23.52 12.879 40.879 32.48 57.121 52.641 5.0391 6.1602 8.9609 12.879 11.762 20.719 7.2812 23.52 14.559 47.602 21.84 71.121 2.2383 7.2812 2.2383 7.2812 10.078 6.7188 25.766-3.9297 52.648-4.4883 80.086-3.9297zm-274.96-169.12c-0.55859-5.0391-1.6797-9.5195-1.6797-14-0.55859-22.398-0.55859-44.801-1.1211-67.762 0-5.0391 0.55859-10.641-3.9219-14-3.9219-2.8008-7.8398-6.1602-13.441-7.2812-1.6797 5.6016 1.1211 10.078 1.1211 14.559-2.2383 21.84 2.2383 43.68 3.9219 65.52 0.5625 10.086 3.9219 18.484 15.121 22.965zm-8.3984-109.76c6.1602 7.2812 12.32 10.078 20.719 5.0391 2.2383-1.6797 5.6016-1.6797 8.3984-1.6797 8.9609-0.55859 17.922-1.6797 27.441 0 19.602 3.3594 39.199 6.7188 58.801 11.762 6.7188 1.6797 12.32 6.1602 20.16 6.1602-2.2383-4.4805-6.1602-5.0391-9.5195-6.7188-2.8008-1.1211-5.6016-2.2383-8.9609-3.3594-10.078-3.3594-20.719-8.3984-30.801-8.9609-16.238-1.1211-31.922-5.0391-48.16-6.1602-1.6797 0-3.9219-0.55859-5.6016 0-8.3984 3.3594-16.801 1.6797-25.762 2.2383-2.2344 0-4.4727-0.5625-6.7148 1.6797zm157.36 207.76c4.4805 16.238 5.6016 32.48 8.9609 48.719 1.1211 6.7188 4.4805 12.32 13.441 14-7.8398-21.277-12.883-42.559-22.402-62.719z"/>
  <path d="m167.44 397.04c6.7188-0.55859 12.879-1.1211 19.039 0.55859 4.4805 1.1211 9.5195 1.6797 14 2.8008 6.1602 1.1211 12.879 2.2383 16.238 9.5195 1.6797 3.3594 7.2812 5.6016 11.199 7.8398 13.441 6.1602 18.48 19.039 22.398 31.922 1.1211 4.4805 2.8008 8.9609 2.8008 14 0.55859 14-5.0391 26.32-8.9609 39.199-1.6797 6.1602-5.6016 11.199-8.3984 16.801-5.6016 10.641-16.238 14-25.762 17.922-6.7188 2.8008-14 4.4805-20.719 6.1602h-1.1211c-11.762-2.8008-24.641-2.2383-35.84-8.3984-6.7188-3.9219-12.879-8.3984-21.281-10.078-5.6016-1.1211-7.8398-7.2812-10.641-11.762-2.8008-3.9219-3.9219-9.5195-5.6016-14-5.6016-17.922-8.9609-36.961-3.9219-55.441 3.9219-16.801 14-29.68 30.801-36.398 6.1602-2.8008 12.32-6.7188 18.48-8.9609 2.8086-1.1211 5.0469-1.1211 7.2891-1.6836zm-41.441 48.723c-5.6016 2.2383-3.3594 7.2812-3.9219 11.199 2.8008-3.3594 3.3633-7.2812 3.9219-11.199 2.8008-2.8008 2.8008-7.8398 6.7188-10.078 1.6797-6.7188 9.5195-7.8398 12.32-14.559-6.7188 2.8008-11.199 6.1602-13.441 12.32 0 0.55859 0.55859 1.6797 1.1211 2.2383-6.1602 1.6758-6.7188 2.7969-6.7188 10.078zm113.68 9.5195c-0.55859-7.2812-5.0391-16.238-11.199-22.961-7.2812-7.8398-17.922-11.762-28.559-11.199-17.359 0.55859-35.281 1.1211-48.719 14.559-0.55859 0.55859-1.1211 0.55859-1.6797 1.1211-5.0391 1.1211-6.7188 5.0391-8.9609 8.9609-8.3984 15.121-6.1602 30.801-4.4805 46.48 2.2383 18.48 19.039 36.398 39.199 38.641 18.48 1.6797 34.719-2.8008 48.16-15.68 6.1602-6.1602 8.3984-15.121 11.762-22.961 3.918-11.203 6.7188-22.402 4.4766-36.961zm-78.398-42.562c5.6016 1.6797 9.5195 1.6797 12.32-2.2383-4.4805-2.2422-7.2812 0-12.32 2.2383z"/>
  <use x="70" y="644" xlink:href="#w"/>
  <use x="90.550781" y="644" xlink:href="#b"/>
  <use x="104.359375" y="644" xlink:href="#a"/>
  <use x="123.347656" y="644" xlink:href="#e"/>
  <use x="142.242188" y="644" xlink:href="#c"/>
  <use x="155.628906" y="644" xlink:href="#a"/>
  <use x="174.617188" y="644" xlink:href="#k"/>
  <use x="204.410156" y="644" xlink:href="#j"/>
  <use x="224.453125" y="644" xlink:href="#i"/>
  <use x="252.453125" y="644" xlink:href="#h"/>
  <use x="274.121094" y="644" xlink:href="#v"/>
  <use x="283.71875" y="644" xlink:href="#a"/>
  <use x="302.710938" y="644" xlink:href="#u"/>
  <use x="330.515625" y="644" xlink:href="#t"/>
  <use x="358.382812" y="644" xlink:href="#g"/>
  <use x="378.3125" y="644" xlink:href="#b"/>
  <use x="392.125" y="644" xlink:href="#e"/>
  <use x="411.015625" y="644" xlink:href="#f"/>
  <use x="429.269531" y="644" xlink:href="#a"/>
  <use x="448.257812" y="644" xlink:href="#f"/>
  <use x="70" y="672" xlink:href="#s"/>
  <use x="82.183594" y="672" xlink:href="#b"/>
  <use x="95.992188" y="672" xlink:href="#d"/>
  <use x="115.226562" y="672" xlink:href="#r"/>
  <use x="154.152344" y="672" xlink:href="#c"/>
  <use x="167.535156" y="672" xlink:href="#q"/>
  <use x="187.46875" y="672" xlink:href="#a"/>
  <use x="216.207031" y="672" xlink:href="#p"/>
  <use x="239.640625" y="672" xlink:href="#d"/>
  <use x="258.878906" y="672" xlink:href="#g"/>
  <use x="278.8125" y="672" xlink:href="#o"/>
  <use x="308.492188" y="672" xlink:href="#n"/>
  <use x="329.015625" y="672" xlink:href="#b"/>
  <use x="342.820312" y="672" xlink:href="#d"/>
  <use x="362.058594" y="672" xlink:href="#m"/>
  <use x="371.65625" y="672" xlink:href="#a"/>
  <use x="390.648438" y="672" xlink:href="#l"/>
  <use x="407.242188" y="672" xlink:href="#c"/>
 </g>
</svg>
