<?xml version="1.0" encoding="UTF-8"?>
<svg width="700pt" height="700pt" version="1.1" viewBox="0 0 700 700" xmlns="http://www.w3.org/2000/svg" xmlns:xlink="http://www.w3.org/1999/xlink">
 <g>
  <path d="m373.49 137.2c2.2383 1.3008 2.8945 3.4492 1.9609 6.4336-2.0547 6.5352-6.9062 9.9922-14.559 10.367-7.6484 0.74609-13.16-2.3359-16.52-9.2383-3.1758-6.7188-2.3359-12.602 2.5195-17.641 3.7344-3.7305 6.2539-6.0664 7.5586-7 3.3594-1.6797 7.0938-1.5859 11.199 0.28516-0.93359 1.8633-2.8945 3.832-5.8789 5.8789-2.8008 2.2344-4.6641 4.1992-5.6016 5.8789-1.3047 2.9844-1.9609 5.2305-1.9609 6.7188 0 2.4258 1.3047 4.2969 3.9219 5.6016 6.9062 2.9844 11.199 1.5859 12.879-4.1992 0.93359-2.9961 2.4297-4.0234 4.4805-3.0859zm32.484-10.086c2.8008 3.168 4.0156 5.7852 3.6406 7.8398 0 1.1211-0.55859 1.6797-1.6797 1.6797-1.4961 0.75-3.832-0.46484-7-3.6328-3.1758-3.168-4.5742-5.6992-4.1992-7.5664l2.2383-1.9609c1.8672-0.375 4.1992 0.83984 7 3.6406zm-14.285-11.754c-2.6094 1.8711-5.1367 1.0312-7.5586-2.5195-11.762-15.863-28.375-25.762-49.84-29.68-0.55859-0.18359-1.6797-1.0312-3.3594-2.5195v-2.5195c5.6016-0.55859 11.57 0.10156 17.922 1.9648 1.4961 0.75 6.8164 2.9844 15.961 6.7188 8.9609 3.9141 17.543 11.098 25.762 21.559 1.4961 1.6797 2.3359 2.8008 2.5195 3.3594 0.55469 1.3047 0.089844 2.5117-1.4062 3.6367zm54.887 23.801c3.168 6.1602 4.6641 10.73 4.4805 13.719-0.74609 6.9062 2.9922 10.824 11.199 11.762 10.266 0.75 20.066 3.3672 29.398 7.8398 4.2969 2.0508 6.5352 3.5508 6.7188 4.4805 0.37109 1.1211-0.55859 3.9219-2.8008 8.3984-6.7188 13.254-7.4648 24.078-2.2383 32.48 4.4805 7.6484 13.16 12.789 26.039 15.398 6.3438 1.4961 9.9844 2.7031 10.922 3.6406 0.93359 1.3047 0.65625 4.9453-0.83984 10.922 1.8633 1.3047 4.0156 1.7695 6.4414 1.3984 1.4961-0.19141 3.6406-0.65625 6.4414-1.3984 7.6562-0.375 12.227 2.9844 13.719 10.078 2.4297 10.633 8.6797 13.629 18.762 8.9609 1.1211-0.37109 2.7031-1.4961 4.7617-3.3594 4.1055-1.8711 7.8398-2.1523 11.199-0.83984 2.9844 1.1211 5.1367 3.832 6.4414 8.1211 4.4805 17.359 5.7852 32.105 3.9219 44.238-0.74609 4.1055-1.8633 12.504-3.3594 25.199-1.4961 10.633-2.8008 18.945-3.9219 24.914-4.8555 23.52-14.094 44.801-27.719 63.84-6.7188 9.3359-17.266 18.664-31.641 28-19.785 12.879-37.609 21.371-53.48 25.48-1.6797 0.37109-3.457 1.3047-5.3203 2.8008-0.93359 0.56641-2.4258 1.6797-4.4805 3.3672-7.6562 6.3438-17.824 10.73-30.52 13.16-32.105 6.3438-59.078 6.7188-80.922 1.1211-9.1445-2.0547-15.961-3.6406-20.441-4.7656-7.8398-2.2344-14.465-4.4805-19.879-6.7148-28.184-11.574-47.32-31.27-57.398-59.086-5.6016-16.984-9.8008-29.863-12.602-38.633-0.55859-2.4297-1.4961-4.1055-2.8008-5.0391-1.3047-0.92969-3.457-1.2148-6.4414-0.83594-22.77 3.7305-46.016-1.4961-69.719-15.688-22.961-13.434-39.008-30.516-48.16-51.234-10.266-23.52-17.078-41.164-20.441-52.922-5.0391-16.613-5.1367-35.281-0.28125-56 6.1602-25.387 11.297-44.145 15.398-56.281 5.0391-14.75 11.105-26.23 18.199-34.441 4.2969-6.1602 7.4648-10.734 9.5195-13.719 3.9219-5.4141 7.8398-9.3281 11.762-11.762 11.199-6.7188 19.695-11.672 25.48-14.84 10.266-6.1602 19.32-10.359 27.16-12.602 3.7344-1.1133 10.168-3.3594 19.32-6.7148 15.121-5.7852 32.105-8.3984 50.961-7.8398 7.2812 0.18359 18.387 0 33.32-0.55859 10.641 0.37109 29.496 3.168 56.559 8.3984 14.191 2.9844 29.121 13.25 44.801 30.801 13.066 14.922 23.891 30.508 32.48 46.754zm-61.039-60.48c-9.7031-6.7188-20.066-10.266-31.078-10.641-2.6094-0.18359-9.2383-1.4961-19.879-3.9219-30.238-5.9688-58.52-4.1992-84.84 5.3203-20.16 7.6484-39.574 18.664-58.238 33.039-24.449 18.48-41.066 41.809-49.84 70 0 0.18359 0.19141 1.0234 0.55859 2.5195 1.3047 0.37109 3.1758 0.28125 5.6016-0.28516 2.4297-0.92969 4.3867-1.2148 5.8789-0.83594-8.3984 3.3594-14.281 8.4961-17.641 15.398-2.6094 5.6016-3.8242 13.25-3.6406 22.961 3.543-0.93359 7.0938-3.5508 10.641-7.8359 4.1055-4.4844 7.2812-7.1836 9.5195-8.1211 2.4258 2.6094 2.1445 5.1367-0.83984 7.5586l-6.7188 5.8789c-2.6133 2.4297-4.9453 4.1992-7 5.3203-5.7852 3.3672-7.9336 8.6797-6.4414 15.965 0.37109 2.9844 1.5859 8.0234 3.6406 15.113 2.6133-1.4961 6.2539-4.5703 10.922-9.2344 4.1055-4.2969 7.9336-7.0938 11.48-8.3984-0.18359 3.9219-1.6797 7.2812-4.4805 10.078-1.4961 1.3047-4.1055 3.168-7.8398 5.6016-4.8477 3.7344-7.4648 6.5352-7.8398 8.3984-0.74609 2.0508 0.28125 5.6953 3.0781 10.922 0.93359 2.0508 2.0547 5.4141 3.3594 10.078 1.3047 3.7344 3.832 5.9688 7.5586 6.7188-0.74609 4.6641-0.28125 9.5195 1.3984 14.559 1.1211 2.4297 3.6406 7.2812 7.5586 14.566 6.7188-8.5898 12.039-14.566 15.961-17.922 3.543-3.5508 6.2539-6.2539 8.1211-8.1211 3.3594-3.3594 7.0938-5.4141 11.199-6.1602-3.3594 5.7852-9.0508 12.035-17.078 18.762-6.5352 5.6016-10.824 10.078-12.879 13.441-2.2383 3.3594-2.3359 6.3438-0.28125 8.9609 2.0547 3.168 5.2305 7.75 9.5195 13.719 3.9219 5.2305 7.7461 9.3281 11.48 12.32 3.9219 2.8008 7.8398 2.8008 11.762 0 14.184-11.391 24.922-19.695 32.199-24.922 7.8398-5.7852 11.105-13.164 9.8008-22.121-0.93359-5.6016-0.09375-12.32 2.5195-20.16 6.7188-22.215 16.801-42.566 30.238-61.039 1.8633-2.4297 5.3203-5.7852 10.359-10.078 10.457-8.7734 23.238-16.238 38.359-22.398 9.1523-3.7344 23.055-8.4961 41.719-14.281 4.1055-1.3086 10.176-1.7695 18.199-1.3984 8.3984 0 14.656-0.65625 18.762-1.9648 12.695-3.7344 23.703-5.1367 33.039-4.1992 4.1055 0.19141 6.8164-0.83594 8.1211-3.0781 1.6797-2.2383 1.7695-5.4141 0.28125-9.5195l-4.4805-7.2812c-8.7734-15.305-18.391-28.84-28.84-40.602-9.1523-10.461-16.809-18.016-22.961-22.68zm-31.922 199.35c-9.8945 5.4141-15.398 13.629-16.52 24.641-0.74609 7.4648 3.5508 13.906 12.879 19.32 8.3984 5.0352 17.734 3.543 28-4.4844 8.3984-6.3438 10.734-13.434 7-21.281-0.74609-1.8633-1.0312-3.168-0.83984-3.9219 0.18359-1.3047 1.2109-2.2344 3.0781-2.8008 2.9844-0.92969 5.1367 0.46875 6.4414 4.1992 0.93359 2.4297 1.0312 6.7188 0.28125 12.887-0.74609 4.6641-4.6641 10.078-11.762 16.234-7.0938 6.1641-12.977 9.4297-17.641 9.8008-7.6562 0.37109-14.934-1.4961-21.84-5.6016-6.9062-3.9219-11.48-8.7695-13.719-14.559-1.8633-4.8555-1.3984-11.105 1.3984-18.766 3.168-8.0234 7.2812-13.906 12.32-17.633 7.0938-5.2305 14.281-7.8398 21.559-7.8398 6.1602-0.18359 10.078 1.4961 11.762 5.0391 1.4961 3.7305 0.65625 9.0508-2.5195 15.961-1.4961-7.6484-3.6406-12.23-6.4414-13.719-2.6133-1.4844-7.0938-0.64453-13.438 2.5234zm84.273-45.074c-1.3047 0.75-3.6406 1.7695-7 3.0781-6.9062 2.9844-12.695 2.1523-17.359-2.5195-3.3594-3.168-4.2969-7.7461-2.8008-13.715 2.2383-7.4688 8.9609-9.7109 20.16-6.7188-0.74609 1.3047-2.3359 2.3359-4.7617 3.0781-2.2383 0.92969-3.832 1.8711-4.7617 2.8008-3.1758 2.9844-3.457 5.8789-0.83984 8.6797 2.9844 3.3672 5.9688 4.0156 8.9609 1.9648 2.2383-2.6133 3.9219-4.3867 5.0391-5.3203 2.0547-1.3047 3.9219-0.375 5.6016 2.8008 0.9375 2.2266 0.19531 4.1914-2.2383 5.8711zm51.246-53.48c-13.441-6.5352-30.613-9.6133-51.52-9.2383-35.656 0.375-65.336 8.1211-89.039 23.238-29.68 18.48-48.906 43.305-57.68 74.48-0.74609 2.2383-0.46484 4.0156 0.83984 5.3203 1.6797 2.2344 2.5195 3.543 2.5195 3.9219 0.375 0.55859-0.18359 1.5859-1.6797 3.0781-4.4805 4.6641-7.0938 8.3047-7.8398 10.922-0.93359 2.6094-0.65625 7.1836 0.83984 13.715l10.922-10.078c2.8008-2.4297 4.9492-2.8008 6.4414-1.1211 0.93359 1.3047 1.0234 2.4297 0.28125 3.3672-0.18359 0.18359-1.2148 0.92969-3.0781 2.2344-1.8633 1.4961-5.0391 3.7344-9.5195 6.7188-3.543 2.6133-5.7852 5.0391-6.7188 7.2812-3.7344 12.32-2.8945 21.75 2.5195 28.285-1.8633 2.9844-2.2383 6.9062-1.1211 11.762 1.1211 5.6016 1.4961 9.4297 1.1211 11.48 1.8633-1.3047 5.5039-4.8477 10.922-10.633 4.2969-4.4844 8.3047-7.6562 12.039-9.5195 0.93359 2.0508 0.93359 3.9219 0 5.6016-0.375 0.55859-1.4961 1.7695-3.3594 3.6328l-13.16 13.441c-4.8555 4.8477-6.2539 9.7031-4.1992 14.559 5.0391 11.391 8.8633 19.039 11.48 22.965l23.52-24.078c2.2383-2.6133 4.2969-2.7031 6.1602-0.28516 1.4961 1.6875 1.0312 3.2695-1.3984 4.7656l-14.559 12.602c-6.3438 5.7852-9.7031 9.8945-10.078 12.32-0.18359 2.2344 2.1445 6.8086 7 13.715 0.55859 0.75 1.3047 1.9648 2.2383 3.6406 1.3047 1.1211 2.7031 1.5859 4.1992 1.3984 7.0938-7.8398 11.664-12.785 13.719-14.84 3.168-3.543 5.6953-6.0664 7.5586-7.5586 2.9922-2.9844 6.3516-5.2305 10.078-6.7188-0.93359 4.1055-2.9844 7.8398-6.1602 11.199-1.6797 1.8633-4.3867 4.2969-8.1211 7.2812-7.8398 7.8398-11.848 12.977-12.039 15.398 0 2.4297 3.7344 7.5664 11.199 15.398 0.19141 0.18359 1.5898 0.56641 4.1992 1.1211 1.1211-2.8008 3.2656-5.5039 6.4414-8.1211 3.9219-2.6133 6.8164-4.7617 8.6797-6.4336 6.3438-7.0938 12.414-11.949 18.199-14.566-2.2383 6.5352-7.0938 12.887-14.559 19.039-8.9609 6.7188-14.465 11.762-16.52 15.121 14.934 11.945 33.039 20.066 54.32 24.359 3.7344 0.75 6.6289-0.46484 8.6797-3.6328 3.5508-4.8555 9.3359-10.367 17.359-16.52 9.7031-7.4688 15.863-12.504 18.48-15.121 2.6094-2.4297 4.7617-2.4297 6.4414 0-2.8008 4.4805-7.1836 8.9609-13.16 13.441-3.168 2.6094-8.1211 6.3438-14.84 11.199-1.3047 1.1133-3.457 2.5156-6.4414 4.1992-2.2383 1.8633-2.9922 3.9141-2.2383 6.1602 0.75 2.0508 2.6133 3.168 5.6016 3.3594 1.6797 0.18359 4.1992 0.28516 7.5586 0.28516 3.543 0.74609 7-0.56641 10.359-3.9219l24.359-21.281c2.4258-2.2383 3.8242-3.457 4.1992-3.6406 1.8633-0.93359 3.8242-0.65625 5.8789 0.83984-2.8008 3.7305-7.3711 8.2109-13.719 13.434-7.2812 5.9688-12.32 10.551-15.121 13.719 9.7031 1.1211 18.945-1.1211 27.719-6.7188 3.168-1.8633 7.0938-4.6641 11.762-8.3984 5.6016-4.4805 9.4297-7.4648 11.48-8.9609 4.2969-4.1055 7.6562-7.1836 10.078-9.2383 4.2969-4.1055 8.8633-6.9062 13.719-8.3984-2.8008 5.2305-7.7461 10.734-14.84 16.52-8.2148 6.7188-13.629 11.762-16.238 15.121 4.1055-1.6797 9.7031-3.832 16.801-6.4414 5.7891-2.6133 10.176-5.8789 13.16-9.8008 2.4297-2.9844 5.8789-6.3438 10.359-10.078 5.0391-4.1055 8.7734-7.2812 11.199-9.5195 2.0547-1.8633 3.6406-2.2344 4.7617-1.1211 2.0547 2.4297 4.1055 3.1758 6.1602 2.2383l4.4805-3.9219c11.574-10.266 21.184-25.387 28.84-45.359 3.3594-9.1523 6.1602-20.352 8.3984-33.602 2.2383-15.305 4.1055-26.785 5.6016-34.441 1.1211-6.7188 0.93359-14.648-0.55859-23.801-2.0508-10.633-3.4492-18.57-4.1992-23.801-12.504 5.6016-21.559 7.75-27.16 6.4414-6.5352-1.6797-11.664-8.3047-15.398-19.879-1.4961-0.56641-3.1758-0.56641-5.0391 0-2.8008 0.74609-4.3867 1.1133-4.7617 1.1133-8.9609 0.56641-14.281-2.7031-15.961-9.8008-1.6797-6.7148-6.1602-11.105-13.441-13.16-3.543-0.75-7.7461-3.168-12.602-7.2812-8.9609-6.3516-13.629-13.535-14-21.566-0.55859-8.0312 2.9844-16.051 10.641-24.078 1.2969-1.4922 1.4805-3.0742 0.55078-4.7578zm-23.52 99.684c-2.6133 1.4961-4.1992 3.0781-4.7617 4.7617-1.3047 2.9922-1.0234 5.1367 0.83984 6.4414 1.4961 0.93359 2.9922 0.09375 4.4805-2.5195 2.2383-3.3594 4.4805-4.2969 6.7188-2.8008 1.6797 1.1211 2.5195 2.7031 2.5195 4.7656 0.55859 2.4258-1.0234 4.5703-4.7617 6.4336-3.3594 1.8711-7 2.1523-10.922 0.83984-4.1055-1.3047-6.7188-3.3672-7.8398-6.1641-1.4961-3.543-1.4961-6.9062 0-10.078 1.6797-2.8008 4.6641-4.9453 8.9609-6.4336 0.74609-0.19141 2.2383-0.75 4.4805-1.6875 1.8633-0.74609 3.6406-0.28125 5.3203 1.3984-0.55859 1.6797-2.2344 3.3594-5.0352 5.043zm81.477 57.398c2.4297 0.75 3.457 2.0508 3.0781 3.9219-0.93359 2.0508-2.8945 3.2656-5.8789 3.6328-7.2812-1.6797-11.48-5.0352-12.602-10.078-0.93359-5.2305 1.3047-9.6133 6.7188-13.16 1.4961-0.93359 3.3594-0.83984 5.6016 0.28125 2.2383 1.1211 2.3359 2.7031 0.28125 4.7617-4.4766 5.4102-3.5469 8.9609 2.8008 10.641zm26.043-15.68c-1.4961-0.75-2.1445-1.7695-1.9609-3.0781l5.3203-27.441c2.8008 4.4805 3.9219 9.3359 3.3594 14.559-0.18359 3.3672-1.3047 8.1211-3.3594 14.285-0.375 1.6758-1.4922 2.2305-3.3594 1.6758zm-10.086 16.801c1.4961-0.18359 2.2383 0.83594 2.2383 3.0781 0 2.4297-0.83984 3.7344-2.5195 3.9219-2.0547-0.56641-2.8945-1.5859-2.5195-3.0781 0.003906-2.6172 0.9375-3.9219 2.8008-3.9219zm-50.672 38.078c5.4141-0.37109 8.1211 1.7695 8.1211 6.4414 0 10.633-1.7695 18.387-5.3203 23.234-4.1055 5.6016-10.832 8.0312-20.16 7.2812-6.5352-0.55859-9.9844-0.83594-10.359-0.83594-6.5352-1.3047-11.105-3.457-13.719-6.4414-2.8008-2.6133-4.1992-6.25-4.1992-10.922 0.18359-6.1602 1.8633-11.664 5.0391-16.516 3.543-5.2305 7.7461-8.3984 12.602-9.5195 5.7852-1.4961 8.9609-0.46875 9.5195 3.0781 0.375 2.6133 0.28125 4.3867-0.28125 5.3203-1.1211 1.3047-3.3594 1.7695-6.7188 1.3984-5.7852-0.75-9.1445 3.7305-10.078 13.434-0.93359 6.1641 1.9609 10.457 8.6797 12.887 8.0312 2.4258 14.75 1.3984 20.16-3.0859 5.7891-4.6641 7.1914-11.008 4.1992-19.035-1.875-3.7344-1.0352-5.9727 2.5156-6.7188zm-69.16-18.199c0.74609 0.75 2.0547 0.93359 3.9219 0.55859 2.8008-0.92969 4.4805-0.83594 5.0391 0.28516 0.74609 1.4961 0.55859 2.6094-0.55859 3.3594-0.55859 0.75-1.5859 1.3984-3.0781 1.9609l-3.9219 1.1211c-4.4805 0.56641-7.9336-0.64844-10.359-3.6328-1.8633-2.4297-1.8633-5.0391 0-7.8398 3.543-5.4141 7.4648-7.8398 11.762-7.2812 2.9844 0 3.6406 1.6797 1.9609 5.0352-0.18359 0.19141-1.2148 1.1211-3.0781 2.8008-1.3203 0.92188-1.8789 2.1367-1.6875 3.6328zm-50.125 67.199c-1.4961-4.2969 0.55859-6.1602 6.1602-5.6016 2.2383 0.55859 4.0156 1.3984 5.3203 2.5195 1.6797 1.4961 2.0547 3.2656 1.1211 5.3203-1.3047 2.6094-2.6094 6.7148-3.9219 12.312-1.4961 5.0391-4.2969 8.3984-8.3984 10.086-4.6641 2.2344-10.832 7.0938-18.48 14.559 0.375-4.4805 2.8945-8.6797 7.5586-12.602 5.6016-4.6641 8.9609-8.2148 10.078-10.641-5.7891-2.2344-10.176-5.0352-13.16-8.3984-3.1758-3.168-4.4805-6.5312-3.9219-10.078 0.74609-5.9688 5.7891-9.1445 15.121-9.5195 0.55859 1.8711-0.18359 3.832-2.2383 5.8867-1.8633 2.0508-2.7031 3.8242-2.5195 5.3125 0.74609 4.8555 2.5195 7.1836 5.3203 7 2.0547-0.18359 3.0781-0.92969 3.0781-2.2344 0.007812-0.38281-0.36719-1.6797-1.1172-3.9219zm-41.715 50.676c-3.543-2.0508-6.5352-2.5195-8.9609-1.3984-3.3594 1.1211-8.2148 1.8633-14.559 2.2383-5.9688 0.55859-10.457 1.3047-13.441 2.2344 14.746 4.8555 22.863 7.4688 24.359 7.8398 8.9609 3.543 16.52 1.8633 22.68-5.0391-4.4805-2.6094-7.8398-4.5664-10.078-5.875zm39.473 13.727c-7.0938-2.2383-12.41-3.457-15.961-3.6406-5.7852-0.37109-11.199 1.1211-16.238 4.4844 7.6562 3.9141 14 5.7852 19.039 5.6016 4.8555-0.19922 9.2461-2.3438 13.16-6.4453zm33.324 5.5977c-11.016-3.9219-19.32-3.3594-24.922 1.6797 2.4297-0.55859 6.5352-0.74609 12.32-0.55859 5.6016 0 9.8047-0.38281 12.602-1.1211zm-303.8-278.05c3.168-20.16 7-36.586 11.48-49.281 0.55859-1.3047 0.93359-2.4258 1.1211-3.3594 0.55859-1.3047 0.09375-2.2383-1.3984-2.8008-2.9844-1.3047-5.1367-0.09375-6.4414 3.6328-2.4297 6.1641-7.0938 22.398-14 48.719-1.3047 5.9766-1.0312 10.176 0.83984 12.602 3.168 0.19141 5.3203-0.64844 6.4414-2.5195 0.55469-1.1055 1.207-3.4414 1.957-6.9922zm-3.6406 15.121c-3.1758 0.75-5.2305 1.4961-6.1602 2.2383-1.6797 1.3047-2.4297 3.543-2.2383 6.7188 0.18359 6.5312 2.0547 15.863 5.6016 28 1.1211 7.4648 2.4258 11.48 3.9219 12.035 1.4961 0.56641 5.1367-1.1211 10.922-5.0352l4.7617-2.8008c-4.2969-5.9766-7-12.039-8.1211-18.199-1.6797-9.5195-2.6133-14.75-2.8008-15.688-0.18359-2.4258-0.46484-4.1992-0.83984-5.3125-0.75781-2.0469-2.4375-2.6992-5.0469-1.957zm164.08-99.121-4.4805 0.56641c-3.3594 0.18359-5.7891 1.3047-7.2812 3.3594-1.4883 2.0547-1.8633 4.4805-1.1211 7.2812 1.1211 5.2305 5.3203 7.1836 12.602 5.8867 1.6797-0.18359 4.2969-1.1211 7.8398-2.8008 3.168-1.1211 6.2539-1.2148 9.2383-0.28516-5.0391 8.9648-12.879 13.254-23.52 12.887-7.2812-0.56641-12.602-4.8555-15.961-12.887-2.8008-5.9688-0.93359-11.848 5.6016-17.633 5.9688-4.8477 11.855-5.6953 17.641-2.5195 0.93359 0.74609 1.5859 1.8711 1.9609 3.3594 0.1875 1.4883-0.65234 2.418-2.5195 2.7852zm-118.72-16.797c18.48-15.301 30.43-25.848 35.84-31.633-9.1445 1.6797-18.48 5.8789-28 12.602-9.5195 7.2812-15.68 14.465-18.48 21.559 2.9883 1.3008 6.5352 0.45703 10.641-2.5273zm-1.6758 7.2852c-8.2148-0.37109-14.656 1.8633-19.32 6.7148-4.4805 4.6719-8.3984 13.254-11.762 25.766 5.6016-2.8008 11.008-8.0312 16.238-15.68 6.1641-8.5859 11.109-14.188 14.844-16.801zm49.273-44.242c-5.6016-1.8711-9.2383-0.37109-10.922 4.4805 2.0547 0.56641 3.9219 0.28125 5.6016-0.83594 0.9375-0.37109 2.7109-1.5898 5.3203-3.6445zm-1.3984 129.36c-9.3359-1.4883-17.449 0.75-24.359 6.7188-7.0938 5.6016-9.8008 12.32-8.1211 20.164 1.3047 6.7148 4.3867 11.199 9.2383 13.434 4.8555 2.2383 10.176 1.3984 15.961-2.5195 1.3047-1.1133 6.1602-5.7852 14.559-14-0.18359 8.0312-1.7734 14-4.7617 17.922-3.3594 4.1055-9.2383 6.5352-17.641 7.2812-6.5352 0.93359-12.602 3.1758-18.199 6.7188-4.1055 2.4297-8.9609 6.4414-14.559 12.039-2.6133 2.0508-3.9219 3.168-3.9219 3.3594-1.3047 0.93359-2.8945 1.2148-4.7617 0.83984 4.8555-8.3984 12.969-16.336 24.359-23.801 0.375-1.1211-0.09375-2.3359-1.3984-3.6406-8.3984-11.016-10.449-21.934-6.1602-32.762 4.2969-10.832 13.254-17.641 26.879-20.441 2.8008-0.55859 5.2305 0.19141 7.2812 2.2383 1.3164 0.94922 3.1797 3.0938 5.6055 6.4492zm21.285 50.688c-1.8633 2.8008-2.4297 4.7617-1.6797 5.8789 0.93359 0.74609 2.5195 0.37109 4.7617-1.1211 2.2383-1.1211 4.2969-0.83984 6.1602 0.83984-0.55859 4.2969-3.168 7.4648-7.8398 9.5156-4.8555 1.6875-8.4961 1.1211-10.922-1.6797-2.9844-3.9219-3.6406-7.3711-1.9609-10.359 1.4961-3.3672 2.7031-5.6016 3.6406-6.7188 1.8633-2.0508 4.0078-2.6133 6.4414-1.6797 2.4219 1.1211 2.8867 2.8906 1.3984 5.3242zm82.598-48.723c7.8398-8.5898 14-14.75 18.48-18.48-17.543 3.7305-34.535 14.09-50.961 31.078-1.6797 1.6797-0.64844 3.2656 3.0781 4.7617v0.28125c-6.3438 2.2383-11.48 7-15.398 14.285-2.2383 3.9141-5.2305 10.168-8.9609 18.762 11.199 0.37109 19.977-3.0781 26.32-10.359 2.8008-2.9922 7.4648-11.105 14-24.367l-15.961 1.6797 0.28125-0.28125h-0.28125c0.55859-0.93359 1.5859-1.6797 3.0781-2.2344 0.74609-0.56641 2.1445-1.0312 4.1992-1.3984 7.2852-2.0625 14.656-6.6367 22.125-13.727zm-50.398-23.52c2.4258-2.2383 4.4805-2.8945 6.1602-1.9609 1.4961 0.55859 2.3359 2.2344 2.5195 5.0352 0 2.9922 0.65625 5.1367 1.9609 6.4414 1.4961 1.4961-0.93359 3.0781-7.2812 4.7617-4.1055-0.55859-6.3438-3.168-6.7188-7.8359-0.375-2.0547 0.74609-4.1992 3.3594-6.4414zm7.5586 78.121c-9.5195-0.75-15.121 2.8008-16.801 10.633-2.4297 11.766-3.6406 22.215-3.6406 31.367 0.375 2.8008 0.93359 4.4805 1.6797 5.0352 2.0547 1.6875 6.1602 1.2148 12.32-1.3984 6.1602-2.6094 9.2383-5.2266 9.2383-7.8359 0.55859-8.9648 2.8945-18.297 7-28 2.0547-4.4805 2.3359-7.3711 0.83984-8.6797-1.1211-1.3047-4.6641-1.6875-10.637-1.1211zm29.402 66.633c-3.9219 4.2969-7.9336 7.5664-12.039 9.8008 3.7344-10.266 11.199-17.449 22.398-21.559-6.3516 7.2773-9.8047 11.203-10.359 11.758zm-46.762-12.312c-1.6797 1.6797-2.1445 7.2812-1.3984 16.801 0 2.6094 0.18359 4.4805 0.55859 5.6016 0.55859 22.586 7.2812 50.211 20.16 82.879v0.28125l-0.55859 0.28125h0.55859c0.375 2.9844 1.5898 6.5352 3.6406 10.641 0.93359 2.4258 2.6094 5.8789 5.0391 10.359 1.6797 3.5508 4.0156 4.9492 7 4.1992 2.4258-0.55859 6.4414-1.2148 12.039-1.9609 4.6641-0.75 8.4961-2.0547 11.48-3.9219l-2.2383-4.7617c-3.168-4.6719-5.6016-8.1211-7.2812-10.367-2.8008-3.9219-5.5039-6.8164-8.1211-8.6797-2.2383-1.4961-5.6016-1.3047-10.078 0.55859-5.0391 2.4297-8.5859 3.5508-10.641 3.3672l-0.83984 0.55859v-0.28125c2.6133-2.9844 5.0391-5.0391 7.2812-6.1602 4.8555-2.6133 7.5586-4.5742 8.1211-5.8867 0.55859-1.3047 0-4.2969-1.6797-8.9609-2.2383-5.9688-5.1367-15.77-8.6797-29.398-1.6797-5.7852-3.0781-9.1523-4.1992-10.078-1.3047-0.75-4.7617-1.3984-10.359-1.9648-0.74609-0.74609-1.3047-1.3047-1.6797-1.6797 0.75-1.1211 3.1758-2.5195 7.2812-4.1992 3.7344-1.6797 5.4141-4.3867 5.0391-8.1211-0.37109-2.9844-0.55859-8.6797-0.55859-17.078 0-7.0938-0.46484-12.785-1.3984-17.078-10.648 1.5-16.812 3.1797-18.488 5.0508zm-14 1.3984-40.32 30.234c5.9766 4.2969 9.8945 6.4414 11.762 6.4414 1.8633 0 4.6641-2.0547 8.3984-6.1641 3.543-4.2969 5.4141-6.5312 5.6016-6.7148 2.4297-2.4297 4.7617-3.9219 7-4.4844 4.4805-1.4961 7.2812-3.8242 8.3984-7 0.74609-2.7969 0.46484-6.9023-0.83984-12.312zm0.83984 22.113c-6.3438 2.8008-10.641 5.3203-12.879 7.5664-2.4297 2.2344-4.7617 5.8789-7 10.922 11.762 2.8008 18.57 3.543 20.441 2.2344 1.6719-1.6758 1.4883-8.5859-0.5625-20.723zm-58.238-11.477c7.6562-13.25 19.785-25.297 36.398-36.121-3.543 5.9766-9.3359 12.32-17.359 19.039-11.391 10.082-17.734 15.777-19.039 17.082zm-53.762-47.602c-3.168 1.3047-5.6016 2.8008-7.2812 4.4805 1.1211 3.9219 2.9844 8.3984 5.6016 13.441 1.4961 2.9844 3.7344 7.2812 6.7188 12.879 2.9922 6.1641 5.5039 9.4297 7.5586 9.8008 2.0547 0.56641 6.6289-1.0312 13.719-4.7617l-18.199-38.922c-3.9141 1.4961-6.625 2.5273-8.1172 3.082zm36.961 52.367c-3.9219-5.2305-6.8164-8.0312-8.6797-8.3984-1.8633-0.56641-6.3438 0.18359-13.441 2.2344 6.3438 11.199 11.297 17.832 14.84 19.879 3.9219 2.2383 8.7734 1.1211 14.559-3.3594zm4.4766 22.398c7.4648 4.4805 12.879 7.4648 16.238 8.9609 0.93359 0.55859 2.6133 1.5859 5.0391 3.0781 2.2383 0.75 4.0078 0.09375 5.3203-1.9609 1.1211-2.0547 0.93359-3.7344-0.55859-5.0391-2.4258-1.3047-4.1055-2.3281-5.0391-3.0781-2.9844-1.4961-5.0391-2.8008-6.1602-3.9219-2.6094-3.168-5.1367-4.2969-7.5586-3.3594-2.0547 0.37109-4.4844 2.1445-7.2812 5.3203zm56.562 17.078c-2.0547 0-5.2266-0.75-9.5195-2.2383-4.1055-1.4961-7.3711-2.1445-9.8008-1.9609 2.0547 2.9844 5.0391 4.6641 8.9609 5.0352 1.6797 0.19141 5.1289-0.089844 10.359-0.83594zm70 77.281c-2.9844 0.74609-4.5703 1.8633-4.7617 3.3594-0.18359 1.4961 0.65625 3.1758 2.5195 5.0391 3.3594 3.168 10.543 8.8633 21.559 17.078 1.8633-2.4297 5.3203-3.832 10.359-4.1992 5.9766-0.74609 9.9922-2.1445 12.039-4.1992-0.93359-2.2344-2.9922-4.6641-6.1602-7.2812-3.1758-2.9844-5.2305-5.2305-6.1602-6.7188-2.9844-4.8477-7.5586-6.6289-13.719-5.3203z" fill-rule="evenodd"/>
  <use x="70" y="644" xlink:href="#w"/>
  <use x="90.550781" y="644" xlink:href="#c"/>
  <use x="104.359375" y="644" xlink:href="#a"/>
  <use x="123.347656" y="644" xlink:href="#f"/>
  <use x="142.242188" y="644" xlink:href="#b"/>
  <use x="155.628906" y="644" xlink:href="#a"/>
  <use x="174.617188" y="644" xlink:href="#m"/>
  <use x="204.410156" y="644" xlink:href="#l"/>
  <use x="224.453125" y="644" xlink:href="#k"/>
  <use x="252.453125" y="644" xlink:href="#j"/>
  <use x="272.617188" y="644" xlink:href="#f"/>
  <use x="291.511719" y="644" xlink:href="#a"/>
  <use x="310.5" y="644" xlink:href="#i"/>
  <use x="322.683594" y="644" xlink:href="#e"/>
  <use x="342.617188" y="644" xlink:href="#h"/>
  <use x="361.960938" y="644" xlink:href="#v"/>
  <use x="389.828125" y="644" xlink:href="#e"/>
  <use x="409.757812" y="644" xlink:href="#u"/>
  <use x="426.425781" y="644" xlink:href="#h"/>
  <use x="436.023438" y="644" xlink:href="#t"/>
  <use x="445.621094" y="644" xlink:href="#g"/>
  <use x="70" y="672" xlink:href="#i"/>
  <use x="82.183594" y="672" xlink:href="#c"/>
  <use x="95.992188" y="672" xlink:href="#d"/>
  <use x="115.226562" y="672" xlink:href="#g"/>
  <use x="154.152344" y="672" xlink:href="#b"/>
  <use x="167.535156" y="672" xlink:href="#s"/>
  <use x="187.46875" y="672" xlink:href="#a"/>
  <use x="216.207031" y="672" xlink:href="#r"/>
  <use x="239.640625" y="672" xlink:href="#d"/>
  <use x="258.878906" y="672" xlink:href="#e"/>
  <use x="278.8125" y="672" xlink:href="#q"/>
  <use x="308.492188" y="672" xlink:href="#p"/>
  <use x="329.015625" y="672" xlink:href="#c"/>
  <use x="342.820312" y="672" xlink:href="#d"/>
  <use x="362.058594" y="672" xlink:href="#o"/>
  <use x="371.65625" y="672" xlink:href="#a"/>
  <use x="390.648438" y="672" xlink:href="#n"/>
  <use x="407.242188" y="672" xlink:href="#b"/>
 </g>
</svg>
