<?xml version="1.0" encoding="UTF-8"?>
<svg width="700pt" height="700pt" version="1.1" viewBox="0 0 700 700" xmlns="http://www.w3.org/2000/svg" xmlns:xlink="http://www.w3.org/1999/xlink">
 <g>
  <path d="m368.48 399.84c-1.6797-1.1211-5.0391-3.3594-7.2812-3.9219-2.8008-1.1211-5.6016-1.6797-7.8398-2.2383-5.0391-0.55859-10.078 0.55859-14 2.2383-3.9219 1.6797-6.7188 3.9219-8.3984 6.1602l-1.1211 1.1211c0.55859-0.55859 0.55859-1.1211 0.55859-1.1211l-0.55859-0.55859s-0.55859 0.55859-1.6797 1.1211c-1.1211 0.55859-3.3594 1.6797-5.0391 3.9219-2.2383 1.6797-4.4805 4.4805-6.7188 7.8398-2.2383 3.3594-3.9219 7.8398-4.4805 12.879s0.55859 11.199 3.9219 16.238c1.1211 1.1211 1.6797 2.2383 2.8008 3.3594 1.1211 1.1211 2.2383 2.2383 3.3594 2.8008 2.2383 1.1211 5.0391 3.3594 7.8398 3.9219 6.1602 2.2383 12.32 2.2383 18.48 1.6797 6.1602-1.1211 12.32-2.8008 17.922-6.1602 5.6016-3.3594 10.641-7.8398 13.441-14.559 2.8008-6.1602 3.3594-14 1.1211-20.719-2.8086-5.6055-7.2891-10.082-12.328-14.004zm1.6797 32.48c-1.6797 4.4805-3.9219 8.9609-7.8398 12.879-3.9219 3.9219-8.9609 6.7188-14.559 7.8398-5.6016 1.1211-11.199-0.55859-15.121-3.3594-2.2383-1.6797-3.3594-2.8008-5.0391-5.0391-1.1211-1.6797-2.8008-3.3594-3.3594-5.6016-1.6797-3.3594-2.8008-7.2812-2.8008-11.199 0-3.9219 0.55859-7.2812 1.6797-10.078 1.1211-3.3594 2.2383-5.6016 3.3594-7.8398 0-0.55859 0.55859-0.55859 0.55859-1.1211-0.55859 0.55859-0.55859 1.1211-0.55859 1.1211l1.1211 0.55859s0.55859-0.55859 1.6797-1.1211c1.1211-1.1211 2.8008-2.2383 5.0391-3.3594 2.2383-1.1211 5.0391-2.2383 7.8398-2.8008 2.8008-0.55859 6.7188-0.55859 10.078 0.55859 1.6797 0.55859 3.3594 1.1211 5.0391 2.2383 1.6797 1.1211 2.8008 1.6797 5.0391 3.3594 3.3594 2.8008 6.1602 6.1602 7.8398 9.5195 1.125 4.4844 1.6836 8.4062 0.003906 13.445z"/>
  <path d="m449.68 330.4c-2.2383-2.2383-5.0391-5.0391-8.9609-7.8398-3.3594-2.8008-7.8398-5.6016-12.32-8.9609-5.0391-2.8008-10.078-5.6016-15.68-8.3984-5.6016-2.8008-12.32-5.0391-19.039-6.7188-6.7188-1.6797-14-2.8008-21.281-3.9219-7.2812-0.55859-15.121-1.1211-22.398-1.1211-15.121 0.55859-29.68 2.8008-42.559 6.7188-6.7188 2.2383-12.879 3.9219-18.48 6.7188-5.6016 2.2383-11.199 5.0391-15.68 7.8398-4.4805 2.8008-8.9609 5.6016-12.879 7.8398-3.3594 2.8008-6.7188 5.0391-8.9609 6.7188-2.8008 1.6797-4.4805 3.9219-5.6016 4.4805l-1.6797 1.6797 0.55859 1.1211s0.55859-0.55859 2.2383-1.6797c1.1211-1.1211 3.3594-2.8008 6.1602-4.4805 2.8008-1.6797 5.6016-3.9219 9.5195-6.1602 3.9219-2.2383 8.3984-4.4805 12.879-6.7188 9.5195-4.4805 21.281-8.9609 34.16-11.762 12.324-2.2344 26.324-3.3555 40.324-3.3555 7.2812 0.55859 14 1.1211 20.719 2.2383 6.7188 1.1211 13.441 2.8008 19.602 4.4805 12.879 3.3594 24.078 7.8398 33.602 11.762 5.0391 2.2383 8.9609 4.4805 12.879 6.1602 3.9219 2.2383 7.2812 3.9219 10.078 5.6016 2.8008 1.6797 5.0391 2.8008 6.1602 3.9219 1.6797 1.1211 2.2383 1.1211 2.2383 1.1211l0.55859-1.1211s-0.55859-0.55859-1.6797-2.2383c-0.55469-0.003907-2.2344-2.2461-4.4766-3.9258z"/>
  <path d="m500.64 263.76c-6.7188-7.2812-16.801-17.359-31.359-26.879-3.3594-2.2383-7.2812-4.4805-11.199-7.2812-3.9219-2.2383-8.3984-4.4805-12.879-6.7188-8.9609-3.9219-19.039-7.2812-29.121-10.641-20.719-5.6016-44.238-7.2812-66.641-6.1602-11.199 0.55859-22.961 2.2383-33.602 4.4805-11.199 2.2383-21.84 5.0391-31.922 8.3984-20.16 6.7188-38.078 15.68-52.641 24.078-14.559 8.3984-25.762 17.359-33.602 22.961-3.9219 2.8008-6.7188 5.6016-8.9609 7.2812-2.2383 1.6797-2.8008 2.8008-2.8008 2.8008l0.55859 1.1211s1.1211-1.1211 3.3594-2.2383c2.2383-1.6797 5.0391-3.9219 8.9609-6.7188 7.8398-5.6016 19.602-13.441 34.16-21.281 7.2812-3.9219 15.68-7.8398 24.078-11.199 8.9609-3.9219 18.48-7.2812 28-10.078 10.078-2.8008 20.16-5.6016 30.801-7.2812s21.84-2.8008 32.48-2.8008c21.84-0.55859 43.68 2.8008 63.281 8.3984 10.078 2.2383 19.039 5.6016 28 8.9609s16.801 7.2812 24.078 11.199c14.559 7.8398 25.762 16.238 33.039 21.84 3.9219 2.8008 6.7188 5.6016 8.9609 7.2812 2.2383 1.6797 2.8008 2.8008 2.8008 2.8008l0.55859-0.55859s-1.1211-1.1211-2.2383-3.3594c-0.55469-2.2461-2.793-5.0469-6.1523-8.4062z"/>
  <path d="m580.16 204.96c-2.2383-3.3594-5.6016-7.8398-10.078-12.879-4.4805-5.6016-10.641-12.32-17.922-19.039s-16.238-14-26.879-20.719c-10.078-6.7188-21.84-13.441-34.719-19.602s-26.879-11.199-42-16.238c-14.562-4.4844-30.801-7.8438-46.484-10.086-7.8398-1.1211-16.238-2.2383-24.641-2.2383l-12.32-0.55859h-12.32c-8.3984 0-16.238 0.55859-24.641 1.1211-8.3984 0.55859-16.238 1.6797-24.078 2.8008-7.8398 1.6797-15.68 2.8008-23.52 4.4805-3.9219 1.1211-7.8398 1.6797-11.762 2.8008-3.9219 1.1211-7.2812 2.2383-11.199 3.3594-14.559 4.4805-28.559 10.078-41.441 15.68-6.7188 2.8008-12.32 6.1602-18.48 8.9609-6.1602 2.8008-11.199 6.1602-16.801 9.5195-10.641 6.7188-20.16 12.879-28 18.48-8.3984 5.6016-14.559 11.762-20.16 16.238-5.6016 4.4805-9.5195 8.3984-12.32 11.199-2.8008 2.8008-4.4805 3.9219-4.4805 3.9219l0.55859 0.55859s1.6797-1.1211 4.4805-3.9219c2.8008-2.2383 6.7188-6.1602 12.32-10.641 5.6016-4.4805 12.32-10.078 20.719-15.121 7.8398-5.6016 17.359-11.762 28-17.359 5.6016-2.8008 10.641-6.1602 16.801-8.9609 6.1602-2.8008 11.762-5.6016 18.48-8.3984 12.879-5.0391 26.879-10.078 41.441-14 3.9219-1.1211 7.2812-2.2383 11.199-2.8008 3.9219-0.55859 7.2812-1.6797 11.199-2.2383 7.8398-1.6797 15.68-2.8008 23.52-3.9219 7.8398-1.1211 15.68-1.6797 24.078-2.2383 7.8398 0 16.238-1.1211 24.078-0.55859l12.32 0.55859 11.762 1.1211c7.8398 0.55859 15.68 2.2383 23.52 2.8008 15.68 2.8008 30.801 6.1602 44.801 10.641 14.559 3.9219 28 9.5195 40.879 14.559 12.879 5.6016 24.078 11.199 34.719 17.359 10.078 6.1602 19.602 12.32 27.441 18.48 7.8398 6.1602 14 11.762 19.039 16.801l11.762 11.762c2.8008 2.8008 3.9219 4.4805 3.9219 4.4805l1.1211-0.55859c0.003906-0.56641-1.6758-2.2461-3.9141-5.6055z"/>
  <use x="70" y="644" xlink:href="#v"/>
  <use x="90.550781" y="644" xlink:href="#b"/>
  <use x="104.359375" y="644" xlink:href="#a"/>
  <use x="123.347656" y="644" xlink:href="#d"/>
  <use x="142.242188" y="644" xlink:href="#c"/>
  <use x="155.628906" y="644" xlink:href="#a"/>
  <use x="174.617188" y="644" xlink:href="#g"/>
  <use x="204.410156" y="644" xlink:href="#l"/>
  <use x="224.453125" y="644" xlink:href="#k"/>
  <use x="252.453125" y="644" xlink:href="#j"/>
  <use x="262.867188" y="644" xlink:href="#f"/>
  <use x="282.804688" y="644" xlink:href="#i"/>
  <use x="292.398438" y="644" xlink:href="#u"/>
  <use x="302" y="644" xlink:href="#d"/>
  <use x="330.640625" y="644" xlink:href="#t"/>
  <use x="352.3125" y="644" xlink:href="#b"/>
  <use x="366.117188" y="644" xlink:href="#g"/>
  <use x="386.164062" y="644" xlink:href="#a"/>
  <use x="405.152344" y="644" xlink:href="#i"/>
  <use x="414.75" y="644" xlink:href="#a"/>
  <use x="433.742187" y="644" xlink:href="#d"/>
  <use x="452.632812" y="644" xlink:href="#h"/>
  <use x="472.570312" y="644" xlink:href="#f"/>
  <use x="70" y="672" xlink:href="#s"/>
  <use x="82.183594" y="672" xlink:href="#b"/>
  <use x="95.992188" y="672" xlink:href="#e"/>
  <use x="115.226562" y="672" xlink:href="#r"/>
  <use x="154.152344" y="672" xlink:href="#c"/>
  <use x="167.535156" y="672" xlink:href="#q"/>
  <use x="187.46875" y="672" xlink:href="#a"/>
  <use x="216.207031" y="672" xlink:href="#p"/>
  <use x="239.640625" y="672" xlink:href="#e"/>
  <use x="258.878906" y="672" xlink:href="#f"/>
  <use x="278.8125" y="672" xlink:href="#h"/>
  <use x="308.492188" y="672" xlink:href="#o"/>
  <use x="329.015625" y="672" xlink:href="#b"/>
  <use x="342.820312" y="672" xlink:href="#e"/>
  <use x="362.058594" y="672" xlink:href="#n"/>
  <use x="371.65625" y="672" xlink:href="#a"/>
  <use x="390.648438" y="672" xlink:href="#m"/>
  <use x="407.242188" y="672" xlink:href="#c"/>
 </g>
</svg>
