<?xml version="1.0" encoding="UTF-8"?>
<svg width="700pt" height="700pt" version="1.1" viewBox="0 0 700 700" xmlns="http://www.w3.org/2000/svg" xmlns:xlink="http://www.w3.org/1999/xlink">
 <g>
  <path d="m221.76 151.76c-25.395 25.367-42.688 57.695-49.703 92.895-7.0156 35.203-3.4297 71.691 10.297 104.86 13.727 33.164 36.984 61.508 66.824 81.453 29.844 19.945 64.93 30.59 100.82 30.59s70.977-10.645 100.82-30.59c29.84-19.945 53.098-48.289 66.824-81.453 13.727-33.164 17.312-69.652 10.297-104.86-7.0156-35.199-24.309-67.527-49.703-92.895-34.02-33.992-80.145-53.086-128.24-53.086s-94.219 19.094-128.24 53.086zm7.8398 7.8398c31.219-31.125 73.293-48.926 117.37-49.656 44.078-0.73047 86.719 15.664 118.95 45.734l-240.24 240.8c-30.238-32.262-46.734-75.023-46.004-119.23 0.73047-44.211 18.637-86.402 49.926-117.64zm240.8 240.8-0.003906-0.003906c-31.219 31.125-73.293 48.926-117.37 49.656-44.078 0.73047-86.719-15.664-118.95-45.734l240.24-240.8c30.238 32.262 46.734 75.023 46.004 119.23-0.73047 44.211-18.637 86.402-49.926 117.64z"/>
  <use x="70" y="644" xlink:href="#u"/>
  <use x="90.550781" y="644" xlink:href="#d"/>
  <use x="104.359375" y="644" xlink:href="#b"/>
  <use x="123.347656" y="644" xlink:href="#l"/>
  <use x="142.242188" y="644" xlink:href="#a"/>
  <use x="155.628906" y="644" xlink:href="#b"/>
  <use x="174.617188" y="644" xlink:href="#k"/>
  <use x="204.410156" y="644" xlink:href="#j"/>
  <use x="224.453125" y="644" xlink:href="#i"/>
  <use x="252.453125" y="644" xlink:href="#h"/>
  <use x="274.121094" y="644" xlink:href="#g"/>
  <use x="290.789062" y="644" xlink:href="#a"/>
  <use x="304.171875" y="644" xlink:href="#c"/>
  <use x="323.40625" y="644" xlink:href="#f"/>
  <use x="343.34375" y="644" xlink:href="#t"/>
  <use x="352.9375" y="644" xlink:href="#g"/>
  <use x="369.605469" y="644" xlink:href="#e"/>
  <use x="70" y="672" xlink:href="#s"/>
  <use x="82.183594" y="672" xlink:href="#d"/>
  <use x="95.992188" y="672" xlink:href="#c"/>
  <use x="115.226562" y="672" xlink:href="#r"/>
  <use x="154.152344" y="672" xlink:href="#a"/>
  <use x="167.535156" y="672" xlink:href="#e"/>
  <use x="187.46875" y="672" xlink:href="#b"/>
  <use x="216.207031" y="672" xlink:href="#q"/>
  <use x="239.640625" y="672" xlink:href="#c"/>
  <use x="258.878906" y="672" xlink:href="#p"/>
  <use x="278.8125" y="672" xlink:href="#f"/>
  <use x="308.492188" y="672" xlink:href="#o"/>
  <use x="329.015625" y="672" xlink:href="#d"/>
  <use x="342.820312" y="672" xlink:href="#c"/>
  <use x="362.058594" y="672" xlink:href="#n"/>
  <use x="371.65625" y="672" xlink:href="#b"/>
  <use x="390.648438" y="672" xlink:href="#m"/>
  <use x="407.242188" y="672" xlink:href="#a"/>
 </g>
</svg>
