<?xml version="1.0" encoding="UTF-8"?>
<svg width="700pt" height="700pt" version="1.1" viewBox="0 0 700 700" xmlns="http://www.w3.org/2000/svg" xmlns:xlink="http://www.w3.org/1999/xlink">
 <g>
  <path d="m570.08 272.16 0.55859-0.55859c0.55859-0.55859 1.1211-0.55859 1.6797-1.1211 2.2383-1.1211 5.6016-0.55859 7.8398 1.1211l4.4805 3.3594-0.55859-5.6016c-0.55859-7.2812-1.6797-14 0-20.16l0.55859-4.4805-4.4805 1.1211h-3.9219c-0.55859 0-1.1211-0.55859-1.6797-0.55859-0.55859 0-1.1211-0.55859-1.6797-1.1211l-0.55859-0.55859h-0.55859l-0.55859-0.55859c-0.55859-0.55859-0.55859-1.1211-1.1211-1.6797-0.55859-1.1211-1.1211-2.2383-1.1211-3.3594v-1.6797c0-0.55859 0.55859-1.1211 0.55859-1.6797 0.55859-1.1211 1.1211-2.2383 2.2383-2.2383 1.1211-0.55859 1.6797-1.1211 2.8008-0.55859 0.55859 0 1.1211 0.55859 1.6797 1.1211l6.7188 7.8398v-10.641l0.55859-20.16c0-1.1211 0-2.2383-0.55859-2.8008-0.55859-1.1211-1.1211-1.1211-1.6797-1.6797h-2.2344l-1.1211-0.55859-2.2383-0.55859c-0.55859 0-1.1211-0.55859-1.6797-0.55859v-2.25l-1.6797-1.6797c-0.55859-0.55859-0.55859-0.55859-1.1211-1.1211 0-0.55859-0.55859-0.55859-0.55859-1.1211v-1.1211-1.1211c0-0.55859 0-0.55859 0.55859-1.1211 0-0.55859 0.55859-0.55859 0.55859-1.1211 0.55859-0.55859 0.55859-0.55859 1.1211-0.55859 1.1211-0.55859 3.9219-0.55859 4.4805 0l5.0391 5.6016 2.2383-8.3984c1.1211-3.9219 0-7.8398-1.6797-11.199-1.6797-2.8008-4.4805-5.6016-7.2812-6.7188-5.6016-2.8008-11.762-3.3594-16.801-3.3594-10.074-0.5625-20.156-0.5625-30.234-0.5625-20.16 0-39.762 0.55859-59.922 1.1211-20.16 1.1211-39.762 2.8008-59.359 3.3594-5.0391 0-10.078 0.55859-14.559 0.55859s-10.078 0-14.559-0.55859l-30.242-0.55859-29.68-1.1211-29.68-0.55859c-19.602-0.55859-39.762-0.55859-59.359-0.55859h-89.039c-5.0391 0-10.078-0.55859-16.238 1.6797-1.1211 0.55859-2.8008 1.1211-4.4805 2.2383l-3.3594 3.3594c-1.6797 2.8008-3.3594 5.6016-2.8008 8.9609v5.0391l4.4805-1.6797c2.8008-1.1211 6.7188-0.55859 9.5195 0.55859 1.6797 0.55859 2.8008 1.6797 3.9219 2.8008 0.55859 0.55859 1.1211 1.1211 1.6797 2.2383 0 0.55859 0.55859 1.1211 0.55859 2.2383 0.55859 1.6797 0.55859 3.3594 0 4.4805 0 0.55859-0.55859 1.1211-1.1211 1.6797l-1.1172 1.1172h-0.55859c-2.2383 1.6797-6.7188 1.1211-11.199 2.8008l-2.2383 0.55859v31.918l3.9219-3.9219c2.2383-1.6797 5.0391-2.2383 6.7188-1.6797 0.55859 0 0.55859 0 0.55859 0.55859 0 0 0.55859 0 0.55859 0.55859 0.55859 0.55859 1.1211 0.55859 1.1211 1.1211 0.55859 1.1211 1.1211 2.2383 1.1211 3.9219 0 1.1211 0 2.8008-0.55859 3.9219 0 0 0 0.55859-0.55859 1.1211l-0.55859 0.55859c-0.55859 0.55859-1.1211 1.1211-1.6797 1.1211-2.2383 1.6797-5.6016 1.6797-7.8398 0.55859l-3.3594-1.6797v3.3594l0.55859 21.84v2.8008l2.2383-1.1211c2.8008-1.1211 5.6016 0 7.2812 2.2383 0.55859 0.55859 1.1211 1.1211 1.6797 1.6797 0.55859 0.55859 0.55859 1.1211 1.1211 1.6797 0.55859 1.1211 1.1211 2.8008 1.1211 4.4805 0 2.8008-1.6797 5.6016-3.9219 7.2812-2.2383 1.6797-5.6016 1.6797-8.3984 0.55859l-0.015624-0.55078v2.8008c0.55859 7.2812-1.1211 15.121-0.55859 22.961v2.2383l2.2383-0.55859c2.8008-0.55859 5.6016-0.55859 8.3984 1.1211 0.55859 0.55859 1.1211 0.55859 1.6797 1.1211 0.55859 0.55859 1.1211 1.1211 1.1211 1.6797 0.55859 1.1211 1.1211 2.2383 1.1211 3.9219 0.55859 2.8008-0.55859 5.6016-2.8008 6.7188-2.2383 1.6797-5.0391 2.2383-7.2812 1.1211l-2.8008-1.6797-0.55859 3.3594-2.2383 19.602v3.9141l3.9219-2.8008c1.6797-1.1211 4.4805-0.55859 6.1602 0.55859 1.1211 0.55859 1.6797 1.6797 2.2383 2.8008 0.55859 1.1211 1.1211 2.2383 1.6797 3.9219 0 0.55859 0.55859 1.1211 0.55859 1.6797v1.1211c0 0.55859-1.1211 1.6797-2.2383 1.6797-1.1211 0.55859-2.2383 0.55859-3.3594 0.55859-1.1211 0-2.8008-0.55859-4.4805-0.55859l-2.2383-0.55859-0.5625 2.8008c-1.6797 3.3594-1.1211 6.7188-0.55859 9.5195 1.1211 2.8008 2.2383 5.6016 5.0391 7.8398 5.6016 4.4805 11.762 4.4805 17.359 4.4805 5.6016 0 11.199-1.1211 16.238-1.6797 5.0391-0.55859 10.078-0.55859 15.68-0.55859l31.922-0.55859 31.359-0.55859 31.922-0.55859c10.641 0 21.281-0.55859 31.359-0.55859h31.922 31.922c21.281 0 42-0.55859 63.281-0.55859l31.922-0.55859c10.641-0.55859 20.719 0 31.359 0.55859 21.281 0.55859 42 0.55859 63.281 1.6797 5.0391 0 10.641 0.55859 16.238-0.55859 5.6016-1.1211 10.641-5.0391 11.762-10.641 0-1.6797 0-2.8008-0.55859-4.4805l-1.6797-1.6797c-0.55859 0-1.1211 0-2.2383-0.55859-2.2383-0.55859-4.4805-2.2383-6.7188-3.9219-1.6797-1.6797-3.9219-3.9219-3.9219-6.1602 0-2.2383 1.1211-4.4805 2.8008-6.7188 1.6797-1.6797 3.9219-3.3594 6.7188-4.4805 1.6797-0.55859 3.3594-1.1211 5.6016-1.6797v1.1211 2.2383l1.1211-1.6797 1.6797-1.6797 0.55859-1.1211h-1.1211-1.1211c0-5.6016-0.55859-11.199-0.55859-16.238v-0.55859h-0.55859c-3.3594 0-6.1602 0-8.9609-1.1211-2.2383-1.6797-2.8008-5.0391-2.8008-7.8398s1.1211-6.1602 3.3594-7.8398c2.2383-2.2383 5.0391-3.3594 7.2812-2.2383l1.6797 1.1211v-2.2383l1.6797-23.52v-2.8008l-2.2383 1.1211c-2.8008 1.1211-6.1602 0.55859-8.3984-0.55859-0.55859-0.55859-1.1211-1.1211-1.6797-1.1211-0.55859-0.55859-1.1211-1.1211-1.1211-1.6797-2.25-0.57812-2.8125-2.2578-2.8125-3.3789 0-1.6797 0.55859-2.8008 1.1211-3.9219 0.55859-0.55859 0.55859-0.55859 0.55859-1.1172zm7.2812-67.199-1.6797 3.3594c0-0.55859 0-1.1211 0.55859-1.6797 0-1.1211 0.5625-1.6797 1.1211-1.6797zm-11.199 77.84c0.55859 0.55859 1.1211 1.6797 1.6797 2.2383 0.55859 0.55859 1.6797 1.6797 2.8008 1.6797 2.8008 1.6797 6.1602 2.2383 9.5195 1.1211l-0.55859 20.719c-1.1211-0.55859-2.8008 0-3.9219 0.55859-1.6797 0.55859-3.3594 1.6797-4.4805 2.8008-2.8008 2.2383-3.9219 6.1602-3.9219 9.5195 0 1.6797 0 3.3594 0.55859 5.0391 0.55859 1.6797 1.6797 3.3594 3.3594 4.4805 2.8008 1.6797 6.1602 1.6797 8.9609 1.6797 0 5.6016 0.55859 10.641 0.55859 15.68-2.2383 0.55859-3.9219 1.1211-6.1602 1.6797-2.8008 1.1211-5.0391 2.8008-6.7188 4.4805-1.6797 1.6797-3.3594 4.4805-3.3594 7.2812 0 2.8008 2.2383 5.0391 4.4805 6.7188 2.2383 1.6797 4.4805 3.3594 7.2812 3.9219 1.6797 0.55859 2.8008 0 2.8008 1.1211 0.55859 1.1211 0.55859 2.2383 0.55859 3.3594-0.55859 2.2383-2.2383 4.4805-3.9219 6.1602-1.6758 2.2422-4.4766 3.3594-6.7148 3.3594-5.0391 1.1211-10.078 0.55859-15.68 0-21.281-1.1211-42-2.2383-63.281-3.9219-10.641-0.55859-21.281-1.6797-31.922-1.6797l-18.477 0.003906s0.55859 0 0.55859-0.55859c0.55859-0.55859 1.1211-1.1211 1.1211-1.6797s-1.1211-1.1211-1.1211-1.6797c-0.55859-1.1211-1.1211-2.8008-1.6797-3.9219-0.55859-1.1211-1.1211-2.2383-1.1211-2.2383l-1.1211-0.55859s-1.1211 0.55859-1.6797 1.1211c-1.1211 1.1211-2.2383 2.2383-3.3594 3.9219-0.55859 0.55859-1.6797 1.6797-1.6797 2.2383 0 0.55859 0.55859 1.6797 1.1211 2.2383h-4.4805c-21.281-0.55859-42-1.1211-63.281-1.6797l-31.922-0.55859c-10.641 0-21.281-0.55859-31.922-0.55859s-21.281 0.55859-31.922 0.55859l-31.922 1.1211c-10.641 0-21.281 0.55859-31.922 1.1211l-31.359 1.6797c-5.0391 0.55859-10.641 0.55859-16.238 1.1211-5.6016 0.55859-10.641 1.6797-15.121 2.2383-2.2383 0-5.0391 0-7.2812-0.55859-2.2383-0.55859-4.4805-1.1211-5.6016-2.2383-2.2383-2.2383-3.9219-6.1602-3.9219-8.9609h2.2383c1.6797 0 3.9219-0.55859 5.6016-1.1211 1.6797-1.1211 3.3594-2.2383 4.4805-4.4805 0.55859-1.1211 0.55859-2.2383 0.55859-3.3594 0-1.1211-0.55859-1.6797-0.55859-2.8008 0.011719-2.8086-1.668-6.168-4.4648-8.4062-1.6797-1.1211-3.3594-1.6797-5.6016-2.2383h-2.2383l1.1211-13.441c3.3594 0.55859 6.1602-0.55859 8.9609-2.2383 3.3594-2.2383 4.4805-6.7188 4.4805-10.641 0-1.6797-1.1211-3.9219-1.6797-5.6016-0.55859-0.55859-1.1211-1.6797-1.6797-2.2383s-1.6797-1.1211-2.2383-1.6797c-2.8008-1.6797-5.6016-2.2383-8.9609-1.6797 0-6.1602 0.55859-12.32 0.55859-18.48 3.3594 0.55859 6.1602 0 8.9609-1.6797 3.3594-2.2383 5.6016-6.1602 5.6016-10.078 0-2.2383-0.55859-3.9219-1.1211-5.6016-0.55859-1.1211-1.1211-1.6797-1.6797-2.8008-0.55859-0.55859-1.1211-1.6797-1.6797-2.2383-1.1211-1.1211-2.8008-2.2383-5.0391-3.3594-1.1211-0.55859-2.2383-0.55859-3.9219-0.55859l-0.55859-16.801c2.8008 0.55859 6.1602 0 8.3984-1.6797 1.1211-0.55859 1.6797-1.1211 2.2383-1.6797 0.55859-0.55859 0.55859-0.55859 1.1211-1.1211 0-0.55859 0.55859-0.55859 0.55859-1.1211 1.1211-1.6797 1.1211-3.9219 1.1211-6.1602 0-2.2383-0.55859-3.9219-1.6797-5.6016-0.55859-1.1211-1.1211-1.6797-2.2383-2.2383l-1.1211-1.1211c-0.55859 0-1.1211-0.55859-1.6797-0.55859-2.8008-1.1211-5.0391-1.1211-7.8398 0l1.6758-17.363c1.1211 0 2.2383-0.55859 3.9219-0.55859 2.2383 0 4.4805-0.55859 7.2812-2.2383 0.55859 0 0.55859-0.55859 1.1211-0.55859l0.55859-0.55859c0.55859-0.55859 1.1211-1.1211 1.6797-1.6797 1.1211-1.1211 1.6797-2.2383 1.6797-3.9219 0.55859-2.8008 0.55859-5.0391 0-7.8398-0.55859-1.1211-0.55859-2.2383-1.6797-3.9219-0.55859-0.55859-1.1211-2.2383-2.2383-3.3594-1.6797-2.2383-3.9219-3.3594-6.1602-4.4805-2.8008-1.1211-5.6016-2.2383-8.9609-2.2383 1.1211-1.6797 2.8008-2.8008 4.4805-3.3594 3.9219-1.1211 8.3984-0.55859 13.441-0.55859l29.68 0.55859 59.359 1.1211c19.602 0.55859 39.762 1.1211 59.359 1.6797l89.039 3.3633c5.0391 0 9.5195 0.55859 15.121 0.55859 5.0391 0 10.078 0 15.121-0.55859 8.3984-0.55859 16.801-1.1211 25.199-1.6797-0.55859 1.1211-1.1211 2.8008-1.1211 3.9219 0 1.1211-1.1211 2.2383-1.1211 3.3594 0 1.1211 0.55859 1.6797 1.6797 2.8008 1.6797 1.6797 3.9219 2.2383 3.9219 2.2383h1.1211s2.2383-1.1211 3.9219-2.8008c0.55859-0.55859 1.1211-1.6797 1.1211-2.8008 0-1.1211-1.1211-2.2383-1.6797-2.8008-0.55859-1.1211-1.1211-2.8008-1.6797-3.9219 9.5195-0.55859 19.039-1.1211 28.559-1.6797 19.602-1.1211 39.199-1.6797 59.359-1.6797h29.68c5.0391 0 8.9609 0.55859 12.32 1.6797 1.1211 0.55859 1.6797 1.1211 2.2383 1.6797-1.6797 0-3.3594 0.55859-5.0391 1.6797-1.1211 0.55859-2.2383 1.6797-2.8008 2.2383-1.1211 1.1211-1.6797 1.6797-2.2383 2.8008s-1.1211 2.2383-1.1211 3.3594c0 1.1211-0.55859 2.8008 0 3.9219 0 1.6797 0.55859 2.2383 0.55859 3.9219 0.55859 1.1211 1.1211 2.2383 1.6797 3.3594 0.55859 1.1211 1.1211 1.6797 2.2383 2.8008 1.1211 0.55859 1.6797 1.6797 2.8008 2.2383 0 0 0.55859 0.55859 1.6797 0.55859 0.55859 0 1.1211 0.55859 1.6797 0.55859 1.1211 0.55859 1.6797 0.55859 2.8008 1.1211l1.6797 0.55859v11.199h-0.55859c-2.8008 0-5.0391 1.1211-7.2812 2.2383-2.2383 1.6797-3.3594 3.3594-4.4805 5.6016-0.55859 1.1211-0.55859 2.2383-1.1211 3.3594v1.6797 1.6797c0 2.2383 1.1211 4.4805 2.2383 6.1602 0.55859 1.1211 1.1211 1.6797 1.6797 2.8008l2.2383 2.2383c1.1211 0.55859 1.6797 1.1211 2.8008 1.6797 1.1211 0.55859 2.2383 0.55859 3.3594 1.1211h2.8008c0 4.4805 0 9.5195 0.55859 14-2.8008-0.55859-5.6016-0.55859-7.8398 0.55859-1.1211 0.55859-2.2383 1.1211-2.8008 1.6797-0.55859 0.55859-0.55859 0.55859-1.1211 1.1211 0 0.55859-0.55859 0.55859-1.1211 1.1211-1.1211 2.2383-1.6797 3.9219-1.6797 6.1602 1.125 2.7969 1.6836 5.0391 2.8047 6.7188z"/>
  <path d="m219.52 245.28c17.922 0 41.441 0 64.398 1.1211 11.762 0.55859 23.52 1.1211 34.719 1.6797 11.199 0 21.281 0 30.238-0.55859 8.9609-0.55859 16.238-1.1211 21.281-1.6797 5.0391-0.55859 8.3984-1.1211 8.3984-1.1211v-1.1211s-11.762-3.3594-29.121-5.0391c-8.9609-1.1211-19.039-1.6797-30.238-2.2383-11.199 0-22.961 0.55859-34.719 1.1211-23.52 1.1211-47.039 2.2383-64.961 3.9219-17.922 1.6797-29.121 2.8008-29.121 2.8008v1.1211c-0.55469-0.007812 11.207-0.007812 29.125-0.007812z"/>
  <path d="m376.32 282.24c0.55859-0.55859 1.6797-1.1211 0.55859-2.8008-0.55859-1.1211-2.2383-1.1211-3.3594-1.6797-1.1211 0-2.2383-0.55859-3.3594-0.55859-5.0391-1.1211-12.32-1.6797-21.281-2.8008-8.9609-0.55859-19.039-1.6797-30.238-1.6797s-22.398 1.1211-34.16 1.1211c-23.52 0.55859-47.039 1.1211-64.398 2.2383-17.359 0.55859-29.121 1.1211-29.121 1.1211v1.1211s11.762 0.55859 29.121 1.6797 40.879 1.6797 64.398 2.8008c11.762 0.55859 23.52 1.1211 34.16 1.6797 11.199 0 21.281-0.55859 30.238-1.1211 8.9609-0.55859 16.238-1.6797 21.281-2.2383 2.2383-0.55859 5.0391-1.1211 5.0391-0.55859v0l-0.55859 1.1211c0.55859 0.55469 1.1211 1.1172 1.6797 0.55469z"/>
  <path d="m320.32 310.24c-11.199 0-22.961 0.55859-35.281 1.1211-24.078 0.55859-48.16 1.1211-66.078 1.6797-17.922 0.55859-30.238 1.1211-30.238 1.1211v1.1211s11.762 0.55859 29.68 1.6797c17.922 1.1211 42 2.2383 66.078 3.3594 11.762 0.55859 24.078 1.6797 35.281 1.6797 11.199 0 21.84-0.55859 30.801-1.1211 17.922-1.1211 30.238-3.9219 30.238-3.9219v-1.1211s-11.762-2.8008-29.68-3.9219c-8.9609-0.55469-19.602-1.1133-30.801-1.6758z"/>
  <path d="m437.92 212.24h-1.1211s-2.8008 5.6016-3.9219 10.641c-0.55859 1.1211-1.1211 2.8008-1.1211 3.9219 0 1.1211 0.55859 2.2383 1.1211 3.3594 1.6797 2.2383 3.9219 3.3594 3.9219 3.3594h1.1211s2.2383-1.1211 3.9219-3.3594c0.55859-1.1211 1.1211-2.2383 1.1211-3.3594 0-1.1211-1.1211-2.8008-1.1211-3.9219-1.6836-5.5977-3.9219-10.641-3.9219-10.641z"/>
  <path d="m437.36 252h-1.1211s-2.8008 4.4805-3.9219 9.5195c-0.55859 1.1211-1.1211 2.2383-1.1211 3.3594s0.55859 2.2383 1.1211 2.8008c1.1211 1.6797 3.9219 2.8008 3.9219 2.8008h1.1211s2.8008-1.1211 3.9219-2.8008c0.55859-1.1211 1.1211-1.6797 1.1211-2.8008s-1.1211-2.2383-1.1211-3.3594c-1.6797-5.0391-3.9219-9.5195-3.9219-9.5195z"/>
  <path d="m432.88 313.6h1.1211s2.2383-1.1211 3.9219-2.8008c0.55859-1.1211 1.1211-1.6797 1.1211-2.8008s-1.1211-2.2383-1.1211-3.3594c-0.55859-2.2383-1.1211-4.4805-1.6797-6.7188-0.55859-1.6797-0.55859-3.3594-0.55859-3.3594h-1.1211s-1.1211 1.1211-2.2383 2.8008c-1.1211 1.6797-2.2383 3.9219-3.3594 6.7188-0.55859 1.1211-1.6797 2.2383-1.6797 3.9219 0 1.1211 0.55859 2.2383 1.1211 3.3594 2.2344 1.1172 4.4727 2.2383 4.4727 2.2383z"/>
  <path d="m438.48 339.36c-0.55859-2.2383-1.1211-3.3594-1.1211-3.3594h-1.1211s-1.1211 1.1211-1.6797 2.8008c-1.1211 1.6797-2.2383 4.4805-3.3594 7.2812-0.55859 1.1211-1.1211 2.8008-1.6797 3.9219 0 1.1211 0.55859 2.8008 1.6797 3.3594 1.6797 2.2383 3.9219 3.3594 3.9219 3.3594h1.1211s2.2383-1.6797 3.9219-3.3594c0.55859-1.1211 1.1211-2.2383 1.1211-3.3594s-1.1211-2.2383-1.1211-3.3594c-0.5625-2.8047-1.125-5.043-1.6836-7.2852z"/>
  <use x="70" y="644" xlink:href="#v"/>
  <use x="90.550781" y="644" xlink:href="#b"/>
  <use x="104.359375" y="644" xlink:href="#a"/>
  <use x="123.347656" y="644" xlink:href="#d"/>
  <use x="142.242188" y="644" xlink:href="#c"/>
  <use x="155.628906" y="644" xlink:href="#a"/>
  <use x="174.617188" y="644" xlink:href="#g"/>
  <use x="204.410156" y="644" xlink:href="#l"/>
  <use x="224.453125" y="644" xlink:href="#k"/>
  <use x="252.453125" y="644" xlink:href="#j"/>
  <use x="262.867188" y="644" xlink:href="#f"/>
  <use x="282.804688" y="644" xlink:href="#i"/>
  <use x="292.398438" y="644" xlink:href="#u"/>
  <use x="302" y="644" xlink:href="#d"/>
  <use x="330.640625" y="644" xlink:href="#t"/>
  <use x="352.3125" y="644" xlink:href="#b"/>
  <use x="366.117188" y="644" xlink:href="#g"/>
  <use x="386.164062" y="644" xlink:href="#a"/>
  <use x="405.152344" y="644" xlink:href="#i"/>
  <use x="414.75" y="644" xlink:href="#a"/>
  <use x="433.742187" y="644" xlink:href="#d"/>
  <use x="452.632812" y="644" xlink:href="#h"/>
  <use x="472.570312" y="644" xlink:href="#f"/>
  <use x="70" y="672" xlink:href="#s"/>
  <use x="82.183594" y="672" xlink:href="#b"/>
  <use x="95.992188" y="672" xlink:href="#e"/>
  <use x="115.226562" y="672" xlink:href="#r"/>
  <use x="154.152344" y="672" xlink:href="#c"/>
  <use x="167.535156" y="672" xlink:href="#q"/>
  <use x="187.46875" y="672" xlink:href="#a"/>
  <use x="216.207031" y="672" xlink:href="#p"/>
  <use x="239.640625" y="672" xlink:href="#e"/>
  <use x="258.878906" y="672" xlink:href="#f"/>
  <use x="278.8125" y="672" xlink:href="#h"/>
  <use x="308.492188" y="672" xlink:href="#o"/>
  <use x="329.015625" y="672" xlink:href="#b"/>
  <use x="342.820312" y="672" xlink:href="#e"/>
  <use x="362.058594" y="672" xlink:href="#n"/>
  <use x="371.65625" y="672" xlink:href="#a"/>
  <use x="390.648438" y="672" xlink:href="#m"/>
  <use x="407.242188" y="672" xlink:href="#c"/>
 </g>
</svg>
