<?xml version="1.0" encoding="UTF-8"?>
<svg width="700pt" height="700pt" version="1.1" viewBox="0 0 700 700" xmlns="http://www.w3.org/2000/svg" xmlns:xlink="http://www.w3.org/1999/xlink">
 <g>
  <path d="m406.59 140.07c16.348 9.2695 44.027 34.293 59.539 47.27 48.039 40.18 98.859 148.8 107.55 210.35 2.4258 17.195 2.4688 82.082 5.0391 91.375-17.254 1.3125-36.641 2.8008-54.148 2.8125-18.664 0.011719-35.828-1.9844-54.445-1.3125 3.6719-12.953-0.36328-56.078-6.4492-69.504-8.5312-18.785-13.891-37.324-22.223-55.715-9.5469-21.055-47.324-80.352-64.785-93.699-15.125-11.574-25.938-25.188-43.125-37.391-42.496-30.172-150.27-53.242-170.77-67.508-0.80469-7.1641-0.78125-42.375 0.011718-50.211 1.6641-16.523 1.1016-36.457 3.1523-52.648 30.59-7.1758 141.26 22.664 171.81 37.766l68.844 38.418zm-162.19 65.699c25.465 10.219 48.582 16.117 73 29.555 73.738 40.535 162.85 188.77 141.64 256.01 11.926 9.9414 13.262 5.8984 29.344 6.9688 24.109 1.6211 77.023 1.0352 96.676-6.0625 3.8477-23.051 1.1445-65.457-2.7773-88.828-9.2695-55.348-28.023-99.191-55.172-149.2-17.141-31.582-68.004-86.27-97.098-107.72-12.016-8.8516-16.438-14.32-31.074-19.984-13.945-5.3906-20.098-11.641-32.496-18.652-54.523-30.844-94.738-40.578-155.93-51.203-13.516-2.3477-35.406-6.4805-48.492-2.4453-11.441 3.5391-5.6211 27.086-7.1211 39.805-2.1719 18.453-1.2773 33.602-1.2891 51.801-0.023437 17.363-10.121 31.055 11.375 34.594 17.066 2.8125 24.473 7.6406 40.07 13.262 12.875 4.6406 26.402 6.9102 39.344 12.105z" fill-rule="evenodd"/>
  <path d="m159.52 218.85c24.406-9.6797 84.914 12.953 108.11 25.676 8.6992 4.7617 15.531 5.4336 24.23 10.484 8.0156 4.6523 13.227 9.9336 21.012 13.602 10.316 4.8633 12.5 6.5703 19.609 15.016 5.1055 6.0859 9.7109 6.668 16.668 16.062 4.8945 6.5938 10.934 12.457 15.773 18.629 3.2539 4.168 3.3828 6.4375 7.375 10.625 9.8672 10.328 13.172 15.586 19.434 31.262l25.828 70.375 8.5977 40.555c-0.13281 6.9688-3.8359 5.2812-0.078125 13.426 17.758 2.9531 1.7422-42.375-0.45312-50.941-7.4648-29.191-24.496-78.895-40.82-102.24-13.879-19.863-49.926-58.535-71.41-72.922-38.043-25.477-19.137-10.34-47.469-25.066-23.051-11.984-94.254-35.684-115.46-22.93-2.082 8.332 0.12109 48.977-0.33984 61.676-0.62891 17.254-2.5898 41.867 3.625 57.258 11.398 4.0664 16.215 2.6445 29.301 9.2031 8.2891 4.1562 15.984 9.5117 24.207 13.66 49.66 25.035 89.359 79.215 89.281 135.92 8.2695 5.918 2.2266 6.2852 13.129 6.9023 6.9883 0.40625 10.551 1.2695 16.59 1.8945 9.3828 0.96094 25.652-0.14453 35.773-0.375 12.422-0.29687 66.594 3.7383 73.055-1.1797-1.0156-9.8555-20.625-6.0195-28.551-6.0742-16.227-0.10938-93.238 0.26562-98.09-4.2109-2.9336-4.8164 0.39844 0.023437 0.49609-6.2383 0.03125-1.9609-0.68359-5.0469-1.2773-7.4062-1.4219-5.6445-2.8867-10.164-3.9688-15.906-4.1562-22.145-27.715-59.859-42.562-76.25-21.848-24.109-69.535-50.488-100.84-59.316-3.7031-42.242-0.28516-21.684-0.77344-49.32v-51.844z" fill-rule="evenodd"/>
  <path d="m159.11 489.84c4.5625-13.746-0.51953-23.777 1.125-37.953 1.125-9.6797 0.042969-12.113 0.13281-20.406 0.054687-5.7969 2.2812-12.855 2.6328-18.344 3.0195-46.797-15.676-47.668 37.801-33.887 30.402 7.8477 53.84 40.18 63.254 71.355 1.9414 6.4375 5.0703 32.562 3.6484 37.391-11.664 2.1953-93.746 3.5039-108.59 1.8398zm-4.9922 1.8867c0 3.5508-4.9492 6.5586 4.0352 7.6172l46.961-1.1914c22.145-2.4805 46.762 0.94922 66.461-0.77344 10.781-15.852 7.332-31.297 1.7852-54.402-7.2539-30.227-38.727-60.223-67.301-71.82-7.2109-2.9219-18.973-4.9062-27.547-7.3867-7.7148-2.2383-20.305-8.1914-23.117 1.5781-3.043 10.617-5.5117 95.199-4.0664 115.26 0.71484 9.9883 2.7773 5.7109 2.7891 11.113z" fill-rule="evenodd"/>
  <path d="m491.96 410.28c7.4844-7.2422 22.047-14.574 32.949-14.23 2.7656 6.2266 5.2461 32.684 5.4141 40.668-12.789-0.84766-24.691-1.918-37.48 0.16406zm-3.8906-39.398c6.0742-4.2539 21.285-12.27 28.32-13.227l7.7266 30.238-33.324 13.383-2.7227-30.391zm14.496-80.781c2.082 7.5742 24.77 29.895 29.145 55.414l-13.957 2.8672c-2.668-5.9766-3.1953-10.891-9.4375-12.656 1.6523 7.0117 5.2344 8.6406 5.5352 15.875l-25.992 12.367c-4.75-4.6094-2.7227-4.7383-9.9766-4.3672l2.8672 9.3164c-8.0352 5.2344-15.035 6.9336-14.309 15.918 7.8594-1.3125 7.6406-6.0742 16.512-9.6328 1.5 13.855 4.8164 25.906 5.3359 39.918l4.2227 36.234c1.2109 4.6641-0.67188 0.77344 1.9609 3.6836l-0.23047-11.926 37.602-2.1484c0.023438 6.4805 0.58594 19.621 3.1094 24.418 1.7422-24.34-4.4297-48.855-5.6016-72.262l19.789-6.2617c-6.7148-5.1602-10.926-0.91406-21.043 0.33984l-5.8203-34.051 11.816-2.5586 7.6523 31.684c4.1875-7.0234-1.9727-19.488-3.4297-28.109-2.3906-14.133-8.5117-35.859-17.617-47.215-4.4531-5.5664-11.918-15.621-18.133-16.844z" fill-rule="evenodd"/>
  <path d="m345.3 415.52c6.207-5.0156 20.715-12.422 28.066-13.691l8.2031 28.055-31.207 8.4766-5.0586-22.84zm63.496 13.238c-10.164-2.5469-13.008-0.023438-22.676-0.55078l-8.707-27.668 6.625-5.9102c-13.207 1.1797-9.3047-6.6016-15.84-18.441-2.9531-5.3594-7.5859-19.191-14.309-17.406-5.5352 1.4766-2.8867 6.4258-1.3906 10.043 3.7695 9.1719 0.79297 4.8633 7.3203 7.2109 5.0273 1.8086 9.4453 14.34 10.926 20.438l-26.699 11.332c-4.918-7.5078-0.023437-12.059-12.953-10.109l6.1953 14.375c-7.1094 4.1445-13.348 6.5938-17.195 13.734 13.504-0.99219 8.8867-4.375 19.93-7.0547l4.1328 21.34c-9.1289 5.6562-12.125 2.1602-15.422 9.6562 8.9297 0.88281 8.457-1.9531 17.043-2.7344l1.8086 11.398c4.5312-4.5977 1.4219-5.2812 3-14.254 9.0078-2.7344 23.59-8.1367 32.422-8.1914l6.1406 21.508-1.8086-23.512 21.465-5.2031z" fill-rule="evenodd"/>
  <path d="m228.28 447.14c-6.1836 2.0938-12.148 4.0352-18.355 6.293-16.941 6.1523-6.1523-5.2344-17.824-0.28516-3.1289 8.0156-0.5625 1.8398 1.0703 7.6406l-14.23 6.7578 2.9766 6.5469 14.805-9.1484c2.0625 2.3164 2.8672 3.8047 5.082 6.8438-5.0156 5.8203-4.3086 0.054688-5.3008 7.7812 7.1562 0.55078 24.219-1.9531 29.773-5.7773-4.9844-3.0977-12.645-1.2695-19.523-2.1367l-3.8711-8.2461c4.9375-4.0586 22.688-11.266 27.207-9.1055 3.043 7.0117 0.023437 16.734 5.2695 22.07 4.7617-7.5273 1.1367-16.59 1.1445-25.496 7.0977-1.4102 15.52-1.3555 20.039-6.4492-6.9336-2.9102-12.422-0.87109-19.844-0.066407-3.8359-4.543-0.59375-3.7578-6.293-6.4141-8.875 3.3398-6.5586 4.1992-2.1289 9.1953z" fill-rule="evenodd"/>
  <path d="m174.23 295.89c2.9336-5.1797-1.3125-50.004-0.49609-67.531l-7.4961 0.33984c-1.4453 8.1016 3.7031 48.086 5.8203 60.871 1.2891 7.7812-0.79297 1.8633 2.1719 6.3164z" fill-rule="evenodd"/>
  <path d="m169.65 144.31c2.9219-7.1562 11.586-54.258 8.9531-62.008-7.5938-2.3594-5.832 3.7812-5.8984 9.7773-0.14453 13.891-4.8398 32.496-3.0547 52.23z" fill-rule="evenodd"/>
  <path d="m168.74 385.27c-3 5.0586-0.47266 6.2617 0.70703 22.773 0.47266 6.582-1.8516 20.383 3.6719 23.391 3.418-5.8984 1.0234-19.898 1.5781-27.594 0.61719-8.6641 5.9531-21.387-5.9531-18.574z" fill-rule="evenodd"/>
  <path d="m314.45 425.95c-1.6641-8.9062 0.011719-16.027-9.457-15.875-1.3984 7.1758 3.7695 14.398 5.3125 21.762 2.3477 11.156 0.84766 16.445 6.8789 19.047-0.17578-9.4258-1.0156-15.652-2.7344-24.934z" fill-rule="evenodd"/>
  <path d="m182.79 278.09c0.042969-0.12109 5.3008-38.625 5.3242-40.797-10.926-1.1367-8.5977 8.3984-8.5312 17.406 0.089843 9.3047-0.58594 15.93 3.207 23.391z" fill-rule="evenodd"/>
  <path d="m183.62 390.29c-1.3984 3.625-4.3203 34.715 1.0586 38.34 1.2773-2.5352 5.8633-35.277 5.1367-38.582z" fill-rule="evenodd"/>
  <path d="m179.17 144.16c3.9922-6.6133 5.7656-19.457 8.9727-29.82 2.1055-6.8125 2.6445-6.1641 0.14453-11.375-9.4453 3.9805-10.43 31.637-9.1172 41.195z" fill-rule="evenodd"/>
  <use x="70" y="560.164063" xlink:href="#w"/>
  <use x="70.039062" y="560.164063" xlink:href="#b"/>
  <use x="70.066406" y="560.164063" xlink:href="#a"/>
  <use x="70.105469" y="560.164063" xlink:href="#e"/>
  <use x="70.140625" y="560.164063" xlink:href="#c"/>
  <use x="70.167969" y="560.164063" xlink:href="#a"/>
  <use x="70.207031" y="560.164063" xlink:href="#k"/>
  <use x="70.265625" y="560.164063" xlink:href="#j"/>
  <use x="70.304688" y="560.164063" xlink:href="#i"/>
  <use x="70.359375" y="560.164063" xlink:href="#h"/>
  <use x="70.402344" y="560.164063" xlink:href="#v"/>
  <use x="70.421875" y="560.164063" xlink:href="#a"/>
  <use x="70.457031" y="560.164063" xlink:href="#u"/>
  <use x="70.511719" y="560.164063" xlink:href="#t"/>
  <use x="70.566406" y="560.164063" xlink:href="#g"/>
  <use x="70.605469" y="560.164063" xlink:href="#b"/>
  <use x="70.632812" y="560.164063" xlink:href="#e"/>
  <use x="70.671875" y="560.164063" xlink:href="#f"/>
  <use x="70.707031" y="560.164063" xlink:href="#a"/>
  <use x="70.746094" y="560.164063" xlink:href="#f"/>
  <use x="70" y="560.21875" xlink:href="#s"/>
  <use x="70.023438" y="560.21875" xlink:href="#b"/>
  <use x="70.050781" y="560.21875" xlink:href="#d"/>
  <use x="70.089844" y="560.21875" xlink:href="#r"/>
  <use x="70.164063" y="560.21875" xlink:href="#c"/>
  <use x="70.191406" y="560.21875" xlink:href="#q"/>
  <use x="70.230469" y="560.21875" xlink:href="#a"/>
  <use x="70.289062" y="560.21875" xlink:href="#p"/>
  <use x="70.332031" y="560.21875" xlink:href="#d"/>
  <use x="70.371094" y="560.21875" xlink:href="#g"/>
  <use x="70.410156" y="560.21875" xlink:href="#o"/>
  <use x="70.46875" y="560.21875" xlink:href="#n"/>
  <use x="70.511719" y="560.21875" xlink:href="#b"/>
  <use x="70.535156" y="560.21875" xlink:href="#d"/>
  <use x="70.574219" y="560.21875" xlink:href="#m"/>
  <use x="70.59375" y="560.21875" xlink:href="#a"/>
  <use x="70.632812" y="560.21875" xlink:href="#l"/>
  <use x="70.664062" y="560.21875" xlink:href="#c"/>
 </g>
</svg>
