<?xml version="1.0" encoding="UTF-8"?>
<svg width="700pt" height="700pt" version="1.1" viewBox="0 0 700 700" xmlns="http://www.w3.org/2000/svg" xmlns:xlink="http://www.w3.org/1999/xlink">
 <g>
  <path d="m409.59 244.86c-15.613-11.508-38.762-18.219-59.035-27.598-16.844-7.7383-20.547-5.8906-35.746-7.3984-27.805-2.7383-47.254-5.2734-69.164-2.8125-20.406 2.2617-27.254 5.6172-47.117 11.918-11.367 3.4961-22.602 7.125-26.98 11.574-15.203 14.996-16.574 39.582 3.9688 50.133 9.0391 4.7266 15.203-1.4375 25.883 3.1484 6.7148-4.8594 13.832-8.5625 20.957-12.051 3.2891 2.8711 5.75 2.3281 8.6289 3.5625 36.707-6.707 77.66-15.613 118.34 5.8906 2.8789 2.9453 3.6953-3.0781 6.9844 1.1641 74.102 47.863 70.543 115.32 80.953 179.29 4.793 17.734 23.969 24.652 39.445 18.969 43.691-69.578 3.5625-117.93-12.602-172.44-14.652-23.078-30.539-45.676-54.516-63.344zm-240.51 18.148c-3.6992-3.9727 5.3438 1.3672 0 0zm15.203-20.203c1.2305 0.95703-0.27344 2.6055-0.95703 4.043-1.2383-0.96094 0.26953-2.6055 0.95703-4.043zm-7.1211 6.5742c1.2305-0.27344-0.69141 0.20312 0 0zm2.3281-6.3672c1.0977 0.68359 0 1.9141-0.27344 2.9453-1.0977-0.6875 0-1.9219 0.27344-2.9453zm1.6406 10.203c5.4766 2.4648 5.3438 6.3672 8.082 9.5195-4.1094 2.5312-14.383-3.7695-8.082-9.5195zm281.33 132.65c-0.82422 0.13672 1.2305-0.34766 0 0zm-0.41016-9.5938c-8.082-4.043-5.0664-19.309-9.8633-27.395 5.6211 4.6602 7.9492 18.566 9.8633 27.395zm-140.12-149.84c-20.547 0.41406-42.184-4.043-62.184-1.7148 15.207-5.957 40.273-5.8203 62.184 1.7148zm-69.852-1.7148c-5.3398 1.0312 5.0664-1.5742 0 0zm-35.062 32.945c4.9336 0.13281-7.5312-0.074219 0 0zm40.816 9.0391c-0.82031 0.13281 1.0938-0.34375 0 0zm-30.547-13.559c11.777-3.3555 24.516-2.6719 36.566-4.3867-7.2578 5.6836-24.512 4.5859-36.566 4.3867zm187.1 60.879c-17.668-32.664-57.113-55.676-93.141-63.348-9.3125-1.9883-19.59 0.20312-30.133-1.0977-28.629-3.5625-61.633-8.4219-86.152 2.4648-1.0977 2.1953 3.4258 3.0117 3.1523 5-3.8359 1.3008-8.9023-2.1914-13.832-5.2031-5.75-21.645 27.938-21.094 41.637-25.957 2.1914 1.0312 1.6406 2.8047 3.8359 3.8359 40.129-4.3125 81.496-3.3555 127.52 16.094 2.4648 8.4297 11.918 14.996 17.395 22.668 4.793-2.1914-2.4648-7.9414-5.75-11.094 11.918-0.68359 23.695 14.312 26.848 22.121 1.9141 0.54688 0.41016-1.7148 2.0547-3.3555 22.602 23.766 36.707 51.43 43.281 79.781 1.6406 7.4648 6.4336 16.094 1.7812 22.668-15.895-16.914-11.926-47.113-38.496-64.578zm41.09 109.3c-0.68359 0.13281 1.2344-0.34375 0 0zm-3.0117-38.832c4.3789-3.9023 6.8477 3.9688 4.793 7.4648-3.5625-1.9883-3.0117-5.0664-4.793-7.4648zm4.3789 13.355c4.2461-3.9023 5.75 3.4219 7.2578 5.8906-4.7891 4.3789-7.2578-1.5117-7.2578-5.8906zm6.3008 17.668c-3.8359-1.5742-2.3281-5.2734 0.54687-5.8906 1.7812 1.5078 1.375 3.4961-0.54687 5.8906z"/>
  <path d="m398.91 371c-11.094-8.6953-14.105-19.789-20.547-27.664-46.566-56.844-130.25-58.074-172.85-20.07 1.3711 0.95703 0.68359 2.3984 2.7383 3.1484-9.4531 9.8633-7.2578 22.328 5.4766 29.52-2.4648 0.54688-4.1094 4.3164-5.8906 7.2617 6.5742 5.4102 9.4531-3.4961 14.93-1.7812-0.41016 3.5625-7.2578 3.4961-2.1914 6.3008 7.9414 2.0547 13.281-5.543 19.039-8.6953 33.008-18.082 86.832 6.9141 108.48 40.195-1.7812 6.6406 3.4219 9.793 5.3438 16.984 2.1914 8.6289-0.27344 19.449 3.4219 25.199 13.699 21.637 41.777 15.137 52.871-0.82422-3.8359-4.4531-1.2305-10.543 0.68359-16.504-0.68359-18.488-9.1797-34.992-11.504-53.07zm-182.03-40.949c2.4648 1.9219 0.82422 4.5859-1.6445 5.2734-1.2344-1.3047 0.82422-3.4258 1.6445-5.2734zm-0.96094 11.773c3.0117-2.7383 3.2891 2.8711 5.75 3.4219-1.9141 2.4727-5.3359-2.3242-5.75-3.4219zm169.15 62.527c-3.6953-0.95703-6.8477 0.89062-11.094-1.9883 3.2891-2.1914 7.5312-1.0234 9.9961-6.3672 2.7461 2.1953 2.0625 5.2734 1.0977 8.3555zm-4.1055-39.449c-3.5625 0.48047-5.3438-7.6719-11.094-9.7266 6.0273-1.1602 8.8984 6.7148 11.094 9.7266zm-2.0547 11.094c-3.6992-3.9688 5.3359 1.3711 0 0zm-0.96094-3.6289c-3.5625 2.3984-2.6055-4.3125-6.0273-5.2031 3.4258-2.3281 4.5195 3.9062 6.0273 5.2031zm-19.449-31.707c8.0781-0.89062 4.6562 7.5391 0 0zm-133.54-16.504c3.4258 6.5742 0.27344 14.723 11.641 19.242-9.043 5.3438-15.887-15.266-11.641-19.242zm71.355 30.27c-5.3438-0.82422-10.684-1.5078-16.301-3.6289 3.4258-1.5742 7.8047 0.27344 11.234-0.95703 5.7539 2.4648 16.574 11.301 5.0664 4.5859zm-4.5195-10.41c1.9141-1.1641 4.2461-0.75 6.9844 1.0977-1.918 1.0977-4.2422 0.6875-6.9844-1.0977zm47.668 36.16c1.2305-0.34375-0.69141 0.20703 0 0zm22.734-1.8477c-26.164-26.297-53.691-41.16-85.875-42.051-16.438-0.41016-39.445 13.289-42.461-11.508 14.246-3.2188 33.422-11.434 56.293-6.4336 29.309 6.4336 53.691 17.734 73.277 42.254 8.2148 10.137 18.078 21.57 18.898 32.871-9.9961 6.4375-19.723-6.2969-20.133-15.133zm12.734 50.812c-3.6953-4.0391 5.3438 1.3047 0 0zm5.2109-6.1602c1.2305-0.33984-0.68359 0.20312 0 0zm8.0781 20.199c-1.6445 2.3281-4.3867 0.68359-7.125-1.1641 1.9141-2.8125 4.2461-3.4258 7.2578-1.8477-0.95703 1.2305-0.95703 2.1875-0.13281 3.0117zm-16.027-32.664c5.4766-0.13281 11.508 2.1914 16.984 2.4648-1.0977 1.9141-0.82422 3.4219 0.27344 4.7266-4.3828 1.7109-14.52-3.1484-17.258-7.1914z"/>
  <path d="m286.88 385.73c-13.016 2.7383-31.914-0.82422-37.941 6.6406-25.473 31.848-6.1641 77.797 38.078 70.539 19.039-3.1484 43.559-36.293 27.938-57.254-5.8867-8.1484-17.66-11.977-28.074-19.926zm-27.117 45.406c3.6953 6.6406-2.4648-4.3164 0 0zm13.422 3.4258c-9.3125-3.5625-17.395-22.395-2.6055-29.309 3.5625 1.0977-3.9688 4.9297-0.41406 5.957 3.8359 1.4375 5.6172-5.5508 8.7656-7.0547 25.484 3.9688 10.281 36.566-5.7461 30.406zm19.855 2.668c-1.3633-6.5742 6.5742-3.9023 0 0zm1.7812-31.293c-4.1055-3.4297 6.168 4.9258 0 0zm3.8359 3.8281c-3.6953-3.9688 5.3438 1.375 0 0z"/>
  <path d="m424.12 302.86c-0.68359 0.20703 1.2305-0.27344 0 0z"/>
  <path d="m575.73 260.81c-10.137-22.668-23.012-50.062-37.25-66.84-18.898-22.328-40.402-45.199-65.469-60.676-20.547-12.738-42.043-28.145-66.566-38.215-11.504-4.7266-24.793-6.0273-37.117-9.8633-65.742-20.887-123.54-21.23-179.97-5.8242-35.477 9.7344-81.09 23.91-91.359 70.34 9.4453 9.9297 13.008 21.711 29.586 25.34 7.5312 1.6445 16.574-4.1758 27.254-6.8477 10.551-2.6719 20.68-3.2188 27.668-5.0664 25.473-6.7773 48.352-14.516 71.91-17.188 88.066-9.9297 197.51 47.867 242.02 126.14 16.844 29.309 24.652 64.645 27.664 98.133 3.1523 34.926-0.13281 70.262 1.6445 105.74 11.641 14.172 41.363 20.547 53.828 10.543 8.9023-7.125 10.41-23.211 14.105-39.238 16.574-71.836 7.2578-129.09-17.945-186.48zm-29.992 3.6992c1.0938-0.26953-0.82422 0.20703 0 0zm-7.8047-15.406c1.2305-0.27344-0.69141 0.20703 0 0zm-0.96484-3.6289c-1.9141 1.5078-2.0547-1.0977-3.2891-2.0547 2.0586-1.5078 2.1953 1.0898 3.2891 2.0547zm-3.832-3.8359c-0.6875 0.14062 1.2344-0.34375 0 0zm-189.29-157.79c1.2305-0.27734-0.68359 0.20703 0 0zm3.0117 7.9414c1.5078 2.1211-1.5078 0.82422-3.0117-0.20312-3.5625 2.3984 0.6875-3.1523 3.0117 0.20312zm-8.8984-0.61328c-0.6875 0.13672 1.2344-0.34766 0 0zm-5.6172-11.164c-3.6953-3.9727 5.2031 1.3711 0 0zm-203.26 58.969c4.2461 1.2305 0.68359 4.3125 2.6055 6.0938-3.1523 2.2539-6.1641-3.4961-2.6055-6.0938zm-11.508 19.309c-2.0547-0.75781-1.2305-2.2617-2.7383-3.1523 0.41406-0.75781 0.95703-1.5078 1.3711-2.3281 2.0547 0.82422 1.3711 2.2578 2.7383 3.2188-0.40625 0.75391-0.95703 1.5078-1.3711 2.2617zm17.949 6.0898c-6.8477 0-6.1641-5.6172-8.2227-9.5195 4.7969-1.1602 10.414 5.6914 8.2227 9.5195zm11.094-44.305c1.3711 9.0391 3.9688 17.668 7.5312 26.09-15.344 4.7266-22.875-20.199-7.5312-26.09zm385.42 350.5c-0.67969 0.13672 1.2344-0.33984 0 0zm5.4805 6.3008c1.2344-0.27344-0.82031 0.20703 0 0zm6.2969-162.64c-18.082-28.352-24.516-61.359-49.172-87.93-25.891-27.738-50.949-58.414-87.109-73.617-66.977-28.012-124.64-28.629-183.54-20.203-19.723 2.7383-37.941 6.5078-57.938 11.641-9.8633-7.8047-13.973-17.051-12.734-27.598 88.066-48.074 247.22-29.926 340.22 67.594-0.27344 1.0234-1.0977 0.75-1.7812 0.41016-0.68359 1.0977-1.9141 0.066406-3.0117-0.20312-0.68359 0.82422-1.7812 0.41016-2.4648 1.5742 4.2461 0.75781 8.4883 3.6953 15.477 7.6719 36.434 59.992 73.141 119.84 69.988 189.77-7.5312-8.1484-15.203-17.328-18.219-26.23-1.3711-4.5938 0.82422-10.203-0.68359-14.312-1.2305-3.6289-5.8906-6.5078-7.5312-10.617-1.9141-5.207-1.9141-12.332-1.5078-17.945zm11.102 112.93c1.7812 4.0391 5.2031 7.668 5.0664 12.258-2.3281-1.3711-4.6602-2.7383-6.8477-4.1094 2.5977-3.2227-2.0547-4.5898 1.7812-8.1484zm-7.8125 56.973c-1.2305-1.1641 0.14062-2.9453 1.3711-2.2617 1.2305 1.4375-0.82422 0.89453-1.3711 2.2617zm5.6172-35.203c4.6602-3.7695 7.5312 5.3438 14.242 7.0547-5.3398 6.6445-12.047-2.5273-14.242-7.0547zm5.207-6.0898c2.8789-5 9.0391 2.6719 12.875 1.5078 1.6406 7.875-8.4961 1.7109-12.875-1.5078zm10.406-4.5859c1.7812-2.8125 5.75-0.14062 6.3008 2.2578-2.875 3.0781-3.832-0.34375-6.3008-2.2578zm6.9883-6.5781c-10.82-0.68359-20.547-14.379-19.59-24.035 7.3984 1.0234 10.82 11.434 20.273 15.137-1.2344 3.2148-1.5078 6.1602-0.68359 8.8984zm-0.69141-14.312c1.0977-0.27344-0.81641 0.20703 0 0zm0.41797-5.8906c-18.625-5.0664-20.133-21.645-21.23-34.242 10.41 3.8359 11.367 18.426 23.695 24.93-4.3867 4.1094 2.6016 7.875-2.4648 9.3125zm-5.8945-23.559c1.3711-0.82422 8.082 2.3281 8.3555 6.5078-4.1094 1.918-7.1211-4.5195-8.3555-6.5078zm17.945 67.73c-0.95703-0.68359 0-1.8477 0.27344-2.9453 1.0977 0.75781 0 1.9219-0.27344 2.9453z"/>
  <use x="70" y="644" xlink:href="#u"/>
  <use x="90.550781" y="644" xlink:href="#b"/>
  <use x="104.359375" y="644" xlink:href="#a"/>
  <use x="123.347656" y="644" xlink:href="#f"/>
  <use x="142.242188" y="644" xlink:href="#c"/>
  <use x="155.628906" y="644" xlink:href="#a"/>
  <use x="174.617188" y="644" xlink:href="#i"/>
  <use x="204.410156" y="644" xlink:href="#h"/>
  <use x="224.453125" y="644" xlink:href="#e"/>
  <use x="252.453125" y="644" xlink:href="#g"/>
  <use x="274.121094" y="644" xlink:href="#f"/>
  <use x="293.015625" y="644" xlink:href="#t"/>
  <use x="302.613281" y="644" xlink:href="#a"/>
  <use x="321.601562" y="644" xlink:href="#b"/>
  <use x="335.414062" y="644" xlink:href="#s"/>
  <use x="345.007812" y="644" xlink:href="#e"/>
  <use x="70" y="672" xlink:href="#r"/>
  <use x="82.183594" y="672" xlink:href="#b"/>
  <use x="95.992188" y="672" xlink:href="#d"/>
  <use x="115.226562" y="672" xlink:href="#q"/>
  <use x="154.152344" y="672" xlink:href="#c"/>
  <use x="167.535156" y="672" xlink:href="#p"/>
  <use x="187.46875" y="672" xlink:href="#a"/>
  <use x="216.207031" y="672" xlink:href="#o"/>
  <use x="239.640625" y="672" xlink:href="#d"/>
  <use x="258.878906" y="672" xlink:href="#n"/>
  <use x="278.8125" y="672" xlink:href="#m"/>
  <use x="308.492188" y="672" xlink:href="#l"/>
  <use x="329.015625" y="672" xlink:href="#b"/>
  <use x="342.820312" y="672" xlink:href="#d"/>
  <use x="362.058594" y="672" xlink:href="#k"/>
  <use x="371.65625" y="672" xlink:href="#a"/>
  <use x="390.648438" y="672" xlink:href="#j"/>
  <use x="407.242188" y="672" xlink:href="#c"/>
 </g>
</svg>
